<?xml version="1.0" encoding="UTF-8"?>
<!-- Generator: visioncortex VTracer 0.6.4 -->
<svg version="1.1" xmlns="http://www.w3.org/2000/svg" width="4096" height="1714">
<path d="M0 0 C3.22256665 0.44205304 6.41172979 0.60592582 9.66015625 0.765625 C17.68911586 1.3032392 25.16664906 3.12267806 32.84765625 5.390625 C33.78561035 5.66293945 34.72356445 5.93525391 35.68994141 6.21582031 C48.42206515 9.97577879 59.62150356 13.65734132 69.84765625 22.390625 C70.72035156 23.13441406 71.59304688 23.87820312 72.4921875 24.64453125 C74.98840645 26.84933293 77.41683479 29.11420425 79.84765625 31.390625 C81.53418131 32.87090319 83.22168692 34.35006492 84.91015625 35.828125 C89.94576046 40.35859023 94.41089888 45.28087634 98.84765625 50.390625 C99.45351562 51.06996094 100.059375 51.74929687 100.68359375 52.44921875 C102.42814541 54.41085263 104.14271026 56.39449722 105.84765625 58.390625 C106.47285156 59.11378906 107.09804687 59.83695312 107.7421875 60.58203125 C123.31121005 79.22186693 132.14133329 101.21747719 136.40722656 124.94384766 C136.77319585 126.97696531 137.17676775 129.00327134 137.58984375 131.02734375 C138.81823399 137.59839019 139.04158869 144.09840823 139.09765625 150.765625 C139.10708252 151.61084717 139.11650879 152.45606934 139.1262207 153.3269043 C139.09959567 158.39319586 138.47817504 162.589653 136.84765625 167.390625 C137.5754126 167.37684814 138.30316895 167.36307129 139.05297852 167.34887695 C146.38713606 167.27076028 153.50693457 167.69982724 160.78515625 168.578125 C162.44430054 168.77559326 162.44430054 168.77559326 164.13696289 168.97705078 C211.10345169 174.80230081 211.10345169 174.80230081 231.84765625 184.0546875 C235.55865062 185.70723968 239.32187923 187.20600198 243.09765625 188.703125 C244.39455928 189.21998176 245.69143678 189.73690258 246.98828125 190.25390625 C247.931875 190.62902344 248.87546875 191.00414062 249.84765625 191.390625 C249.84765625 192.050625 249.84765625 192.710625 249.84765625 193.390625 C250.57726563 193.66777344 251.306875 193.94492188 252.05859375 194.23046875 C265.34318556 199.7564124 276.04056938 209.97324841 285.53515625 220.515625 C286.30214844 221.36382812 287.06914063 222.21203125 287.859375 223.0859375 C291.84765625 227.70889612 291.84765625 227.70889612 291.84765625 231.390625 C292.83765625 231.720625 293.82765625 232.050625 294.84765625 232.390625 C296.49609375 235.1640625 296.49609375 235.1640625 298.22265625 238.765625 C298.78726563 239.92835938 299.351875 241.09109375 299.93359375 242.2890625 C300.23265625 242.93061279 300.53171875 243.57216309 300.83984375 244.2331543 C301.56999756 245.79622824 302.31700585 247.35146509 303.07421875 248.90161133 C306.2542773 255.57003607 308.37472843 262.1538906 310.09765625 269.328125 C310.48050781 270.81989258 310.48050781 270.81989258 310.87109375 272.34179688 C317.20811439 298.07343593 315.64007774 327.98678178 308.84765625 353.390625 C308.62883789 354.23334961 308.41001953 355.07607422 308.18457031 355.94433594 C305.84886922 364.82142214 302.96237756 373.16118237 298.84765625 381.390625 C298.18765625 381.390625 297.52765625 381.390625 296.84765625 381.390625 C297.17765625 382.380625 297.50765625 383.370625 297.84765625 384.390625 C295.69859884 393.29809742 290.86788046 400.86028868 285.84765625 408.390625 C285.18765625 408.390625 284.52765625 408.390625 283.84765625 408.390625 C283.76515625 409.463125 283.68265625 410.535625 283.59765625 411.640625 C282.76323996 415.81270646 281.93525616 416.66627214 278.84765625 419.390625 C277.21256705 421.94136415 275.75644035 424.55481363 274.28515625 427.203125 C273.57359375 428.2859375 273.57359375 428.2859375 272.84765625 429.390625 C272.18765625 429.390625 271.52765625 429.390625 270.84765625 429.390625 C270.57308594 429.97328125 270.29851563 430.5559375 270.015625 431.15625 C266.45930504 437.95964471 260.94874326 443.71844856 255.84765625 449.390625 C254.94246089 450.42426253 254.03753172 451.4581332 253.1328125 452.4921875 C252.1633565 453.58386298 251.19330426 454.67500925 250.22265625 455.765625 C249.76737549 456.28995117 249.31209473 456.81427734 248.84301758 457.35449219 C246.02035805 460.49180381 243.71391459 461.87315159 239.84765625 463.390625 C238.70235737 465.28007885 238.70235737 465.28007885 237.84765625 467.390625 C232.31398833 473.86737417 225.50286157 479.13017163 218.84765625 484.390625 C218.28224121 484.84356934 217.71682617 485.29651367 217.13427734 485.76318359 C215.37855889 487.16824136 213.61452646 488.56212663 211.84765625 489.953125 C211.2956958 490.3951123 210.74373535 490.83709961 210.17504883 491.29248047 C206.19233657 494.390625 206.19233657 494.390625 202.84765625 494.390625 C202.51765625 495.380625 202.18765625 496.370625 201.84765625 497.390625 C196.59051339 501.390625 196.59051339 501.390625 192.84765625 501.390625 C192.66203125 501.9475 192.47640625 502.504375 192.28515625 503.078125 C188.98541022 508.38641209 182.62120236 511.11163111 177.25390625 513.98828125 C173.67888164 516.07177774 170.40864123 518.54343989 167.109375 521.03515625 C164.84765625 522.390625 164.84765625 522.390625 160.84765625 522.390625 C160.51765625 523.380625 160.18765625 524.370625 159.84765625 525.390625 C157.9140625 526.56640625 157.9140625 526.56640625 155.41015625 527.703125 C151.78721881 529.4219618 148.33052614 531.23424471 144.91015625 533.328125 C120.17837876 548.390625 120.17837876 548.390625 113.84765625 548.390625 C113.84765625 549.050625 113.84765625 549.710625 113.84765625 550.390625 C113.30238281 550.60976563 112.75710938 550.82890625 112.1953125 551.0546875 C108.07087548 552.78906615 104.32838111 554.6312305 100.66015625 557.203125 C96.75066806 559.90862922 92.71034986 562.12963586 88.47265625 564.265625 C87.86526611 564.57604736 87.25787598 564.88646973 86.63208008 565.20629883 C83.82922896 566.59380619 82.01948912 567.390625 78.84765625 567.390625 C78.84765625 568.050625 78.84765625 568.710625 78.84765625 569.390625 C78.06261719 569.70515625 77.27757812 570.0196875 76.46875 570.34375 C70.66268129 572.70892155 65.23678741 575.20113921 59.84765625 578.390625 C59.06390625 578.70386719 58.28015625 579.01710938 57.47265625 579.33984375 C53.92528699 580.75984722 50.61899423 582.57108272 47.25 584.3671875 C44.84765625 585.390625 44.84765625 585.390625 40.84765625 585.390625 C40.84765625 586.050625 40.84765625 586.710625 40.84765625 587.390625 C39.77451172 587.80441406 39.77451172 587.80441406 38.6796875 588.2265625 C35.88827796 589.37392808 33.22724355 590.65244643 30.53515625 592.015625 C29.48585938 592.54285156 28.4365625 593.07007813 27.35546875 593.61328125 C24.88775593 594.86362572 22.42484993 596.12145111 19.96484375 597.38671875 C12.63103895 601.13536455 5.38821626 604.52190212 -2.3828125 607.28515625 C-5.19365597 608.40711493 -7.56800365 609.82546128 -10.15234375 611.390625 C-12.05536289 612.21455787 -13.97308822 613.00515126 -15.90234375 613.765625 C-20.45302981 615.61940141 -24.70083831 617.66897107 -28.921875 620.1796875 C-33.01070614 622.39954328 -37.34966591 624.06274544 -41.65234375 625.8203125 C-48.05117764 628.4626881 -53.63267242 631.16279164 -59.15234375 635.390625 C-60.81172458 636.07522524 -62.47957142 636.73942998 -64.15234375 637.390625 C-66.20282395 638.39363767 -68.24357833 639.41663973 -70.27734375 640.453125 C-76.89430463 643.80523869 -83.5861371 646.98457106 -90.31494141 650.10571289 C-94.22342516 651.93518938 -98.03249305 653.85062246 -101.7890625 655.9765625 C-105.48211936 658.06470774 -109.24395952 659.73357419 -113.15234375 661.390625 C-116.28505729 662.96228666 -119.37414839 664.61316486 -122.46484375 666.265625 C-124.15194387 667.16091021 -125.83944006 668.05544945 -127.52734375 668.94921875 C-128.32785156 669.37315918 -129.12835937 669.79709961 -129.953125 670.23388672 C-133.98556198 672.35485546 -138.06108505 674.38607254 -142.15234375 676.390625 C-145.32377865 677.94751122 -148.21283381 679.4309517 -151.15234375 681.390625 C-152.47234375 681.390625 -153.79234375 681.390625 -155.15234375 681.390625 C-155.48234375 682.380625 -155.81234375 683.370625 -156.15234375 684.390625 C-157.47234375 684.390625 -158.79234375 684.390625 -160.15234375 684.390625 C-160.15234375 685.050625 -160.15234375 685.710625 -160.15234375 686.390625 C-160.755625 686.71675781 -161.35890625 687.04289063 -161.98046875 687.37890625 C-162.7796875 687.81589844 -163.57890625 688.25289062 -164.40234375 688.703125 C-165.19125 689.13238281 -165.98015625 689.56164062 -166.79296875 690.00390625 C-169.14416261 691.32495335 -169.14416261 691.32495335 -171.12890625 692.8828125 C-173.41123899 694.58354694 -175.76199339 695.87211599 -178.27734375 697.203125 C-182.80585398 699.6355476 -187.21264448 702.20886245 -191.6015625 704.8828125 C-194.35027818 706.50762759 -197.14698163 708.0142741 -199.96484375 709.515625 C-203.70614757 711.53017321 -206.85768514 713.70287719 -210.15234375 716.390625 C-212.46410962 717.72730509 -214.80244598 718.99588903 -217.1640625 720.2421875 C-219.2899469 721.35580424 -219.2899469 721.35580424 -221.15234375 723.390625 C-222.14234375 723.390625 -223.13234375 723.390625 -224.15234375 723.390625 C-224.48234375 724.380625 -224.81234375 725.370625 -225.15234375 726.390625 C-226.79790941 727.42498056 -228.46940455 728.41826013 -230.15234375 729.390625 C-231.20714858 730.27095084 -232.24864413 731.16743082 -233.27734375 732.078125 C-236.15234375 734.390625 -236.15234375 734.390625 -239.15234375 734.390625 C-239.48234375 735.380625 -239.81234375 736.370625 -240.15234375 737.390625 C-241.79658334 738.33019048 -243.44518314 739.26312582 -245.1171875 740.15234375 C-248.16926204 742.00936415 -250.66832205 744.40149188 -253.30859375 746.79296875 C-255.44171187 748.64136983 -257.71350763 749.97866725 -260.15234375 751.390625 C-261.22676131 752.27212968 -262.28878459 753.16889551 -263.33984375 754.078125 C-266.15234375 756.390625 -266.15234375 756.390625 -268.15234375 756.390625 C-268.48234375 757.380625 -268.81234375 758.370625 -269.15234375 759.390625 C-269.81234375 759.390625 -270.47234375 759.390625 -271.15234375 759.390625 C-271.48234375 760.380625 -271.81234375 761.370625 -272.15234375 762.390625 C-273.81901042 763.05729167 -275.48567708 763.72395833 -277.15234375 764.390625 C-277.48234375 765.380625 -277.81234375 766.370625 -278.15234375 767.390625 C-279.7109375 768.99609375 -279.7109375 768.99609375 -281.58984375 770.578125 C-282.20730469 771.10792969 -282.82476563 771.63773438 -283.4609375 772.18359375 C-285.15234375 773.390625 -285.15234375 773.390625 -287.15234375 773.390625 C-287.48234375 774.380625 -287.81234375 775.370625 -288.15234375 776.390625 C-291.59678819 779.390625 -291.59678819 779.390625 -294.15234375 779.390625 C-294.41144531 779.99003906 -294.67054688 780.58945312 -294.9375 781.20703125 C-296.24577895 783.55856802 -297.47950813 784.68977842 -299.58984375 786.328125 C-301.80368036 788.14274517 -303.12048451 789.33660281 -304.58984375 791.828125 C-306.60803616 795.13796056 -309.21845328 797.20617922 -312.16015625 799.6953125 C-315.57879137 802.60450396 -318.58503413 805.66122692 -321.33984375 809.203125 C-321.93796875 809.925 -322.53609375 810.646875 -323.15234375 811.390625 C-323.81234375 811.390625 -324.47234375 811.390625 -325.15234375 811.390625 C-325.41273437 811.9578125 -325.673125 812.525 -325.94140625 813.109375 C-327.26102739 815.59537095 -328.79106384 817.67667857 -330.52734375 819.890625 C-331.11257813 820.6434375 -331.6978125 821.39625 -332.30078125 822.171875 C-334.1439873 824.38061137 -336.1172728 826.35949799 -338.15234375 828.390625 C-342.61675249 833.62320124 -346.69831439 839.04708108 -350.4375 844.81640625 C-353.12465263 848.85019573 -355.97462493 852.76673653 -358.81396484 856.69433594 C-361.16682357 859.92812891 -361.16682357 859.92812891 -363.15234375 863.390625 C-363.81234375 863.390625 -364.47234375 863.390625 -365.15234375 863.390625 C-365.44109375 864.298125 -365.72984375 865.205625 -366.02734375 866.140625 C-366.91766151 868.71265408 -367.86728788 871.00409266 -369.15234375 873.390625 C-369.81234375 873.390625 -370.47234375 873.390625 -371.15234375 873.390625 C-371.44109375 874.298125 -371.72984375 875.205625 -372.02734375 876.140625 C-372.91766151 878.71265408 -373.86728788 881.00409266 -375.15234375 883.390625 C-375.81234375 883.390625 -376.47234375 883.390625 -377.15234375 883.390625 C-377.39984375 884.215625 -377.64734375 885.040625 -377.90234375 885.890625 C-378.82266285 888.46751849 -379.75530511 890.70518688 -380.984375 893.12109375 C-381.33935059 893.82218262 -381.69432617 894.52327148 -382.06005859 895.24560547 C-382.4205127 895.95346191 -382.7809668 896.66131836 -383.15234375 897.390625 C-383.8078808 898.68850469 -384.46284258 899.98667512 -385.1171875 901.28515625 C-385.43985596 901.92501465 -385.76252441 902.56487305 -386.0949707 903.22412109 C-393.18402162 917.18266843 -393.18402162 917.18266843 -398.40234375 931.90625 C-399.90613711 936.8875655 -401.95776899 941.70020443 -404.06811523 946.453125 C-405.54918995 950.4658003 -406.48869327 954.55450812 -407.46484375 958.71484375 C-407.78642456 960.06700737 -407.78642456 960.06700737 -408.11450195 961.44648743 C-408.56675419 963.35150944 -409.01715322 965.25697223 -409.46582031 967.1628418 C-410.14610936 970.05165101 -410.83231006 972.93900481 -411.51953125 975.82617188 C-411.95998745 977.68481245 -412.40010242 979.54353392 -412.83984375 981.40234375 C-413.04198486 982.25374435 -413.24412598 983.10514496 -413.45239258 983.98234558 C-416.36463295 995.27925986 -416.36463295 995.27925986 -417.21484375 1006.828125 C-417.08097048 1010.45434445 -417.28037592 1013.93791386 -417.640625 1017.54296875 C-418.18343221 1023.21456543 -418.30472389 1028.82103692 -418.27734375 1034.515625 C-418.27468506 1035.53970459 -418.27202637 1036.56378418 -418.26928711 1037.61889648 C-420.20950804 1064.30118483 -420.20950804 1064.30118483 -415.15234375 1088.390625 C-414.90309677 1089.7595201 -414.70882647 1091.13852508 -414.5390625 1092.51953125 C-414.37192749 1093.81286377 -414.37192749 1093.81286377 -414.20141602 1095.13232422 C-414.08209717 1096.06318848 -413.96277832 1096.99405273 -413.83984375 1097.953125 C-412.56732401 1107.34004447 -410.6525109 1116.25793896 -408.15234375 1125.390625 C-407.81493165 1126.7128362 -407.48031364 1128.03576343 -407.1484375 1129.359375 C-405.51872937 1135.79440763 -403.67804142 1141.96871426 -401.078125 1148.08203125 C-400.14395214 1150.41155092 -399.4473813 1152.72300414 -398.77734375 1155.140625 C-394.70884179 1169.13977153 -387.48940262 1182.15768856 -380.6550293 1194.97021484 C-371.09813651 1212.89992591 -371.09813651 1212.89992591 -371.27734375 1217.828125 C-372.15234375 1220.390625 -372.15234375 1220.390625 -374.15234375 1222.390625 C-379.31273126 1222.9396024 -379.31273126 1222.9396024 -381.77734375 1221.328125 C-383.32520979 1219.14704104 -384.63700101 1216.8708651 -385.9296875 1214.53125 C-387.3662894 1212.01604923 -388.9059156 1209.58189951 -390.46484375 1207.140625 C-391.06941406 1206.19316406 -391.67398437 1205.24570313 -392.296875 1204.26953125 C-393.49150141 1202.41597406 -394.69646321 1200.56901668 -395.9140625 1198.73046875 C-404.59306923 1185.48766972 -410.92897107 1170.91989286 -416.94140625 1156.3125 C-417.81501513 1154.20456632 -418.72005355 1152.10956258 -419.64453125 1150.0234375 C-421.21819998 1146.23195585 -422.46982713 1142.44112664 -423.65234375 1138.515625 C-424.08789561 1137.09485387 -424.5240883 1135.67427902 -424.9609375 1134.25390625 C-425.16702637 1133.58182129 -425.37311523 1132.90973633 -425.58544922 1132.21728516 C-426.26285491 1130.0345335 -426.98010015 1127.86720588 -427.71484375 1125.703125 C-428.19401042 1124.265625 -428.67317708 1122.828125 -429.15234375 1121.390625 C-429.45914062 1120.49085937 -429.7659375 1119.59109375 -430.08203125 1118.6640625 C-432.81904292 1110.28329033 -434.57760213 1101.83936208 -436.22265625 1093.1875 C-436.82237806 1090.033549 -437.47069666 1086.89769903 -438.17578125 1083.765625 C-442.18442571 1065.93473896 -444.33979792 1047.34749453 -444.1105957 1029.05957031 C-443.84145349 1026.46952827 -443.84145349 1026.46952827 -445.15234375 1025.390625 C-445.48434003 1020.77564775 -445.44763338 1016.14133839 -445.46484375 1011.515625 C-445.46976837 1010.44932358 -445.46976837 1010.44932358 -445.47479248 1009.36148071 C-445.49461466 995.86800201 -444.53383907 982.5072638 -443.27734375 969.078125 C-443.19030182 968.12512512 -443.10325989 967.17212524 -443.01358032 966.19024658 C-442.76107508 963.46805382 -442.49511382 960.74760532 -442.22265625 958.02734375 C-442.14545853 957.21205704 -442.0682608 956.39677032 -441.98872375 955.55677795 C-441.58669008 951.75718093 -441.09325536 948.69994912 -439.15234375 945.390625 C-438.95928074 943.58410682 -438.84139744 941.76880074 -438.77734375 939.953125 C-438.3808624 934.20762333 -437.05977129 929.24564879 -435.25 923.796875 C-434.1073745 920.25107631 -433.18433396 916.69090608 -432.27734375 913.078125 C-430.48704416 906.24115412 -428.13654998 899.74111733 -425.5859375 893.15625 C-424.34930506 889.95403979 -423.25624933 886.72483696 -422.21484375 883.453125 C-418.52850117 872.2722347 -414.38960841 861.39749503 -407.6328125 851.6875 C-406.10219708 849.31282489 -405.18326635 847.01551254 -404.15234375 844.390625 C-403.04157118 842.32967349 -401.89357365 840.2884776 -400.71484375 838.265625 C-399.81958984 836.71488281 -399.81958984 836.71488281 -398.90625 835.1328125 C-397.15234375 832.390625 -397.15234375 832.390625 -395.5546875 830.8359375 C-393.69239808 828.91658629 -393.10864242 826.87476022 -392.15234375 824.390625 C-391.19259582 822.84407467 -390.1917649 821.3222929 -389.15234375 819.828125 C-387.25171432 817.08646704 -385.57644224 814.40998765 -384.15234375 811.390625 C-383.49234375 811.390625 -382.83234375 811.390625 -382.15234375 811.390625 C-381.76369141 810.57658203 -381.76369141 810.57658203 -381.3671875 809.74609375 C-379.93966456 806.97825989 -378.35749623 804.3490319 -376.71484375 801.703125 C-375.81958984 800.24326172 -375.81958984 800.24326172 -374.90625 798.75390625 C-373.15234375 796.390625 -373.15234375 796.390625 -370.15234375 795.390625 C-369.88421875 794.689375 -369.61609375 793.988125 -369.33984375 793.265625 C-367.02993449 787.67321311 -362.37591172 783.61419297 -358.15234375 779.390625 C-357.82234375 778.730625 -357.49234375 778.070625 -357.15234375 777.390625 C-356.49234375 777.390625 -355.83234375 777.390625 -355.15234375 777.390625 C-355.05953125 776.5553125 -355.05953125 776.5553125 -354.96484375 775.703125 C-353.42537077 771.32154805 -349.5395431 768.68342921 -346.02734375 765.828125 C-343.60282621 763.77255578 -342.01679103 761.90762882 -340.15234375 759.390625 C-339.49234375 759.390625 -338.83234375 759.390625 -338.15234375 759.390625 C-337.89710937 758.79636719 -337.641875 758.20210937 -337.37890625 757.58984375 C-336.02514849 755.16256472 -334.68124375 753.94083317 -332.52734375 752.203125 C-328.61306939 748.90801768 -325.31298796 745.30774998 -322.01171875 741.40625 C-320.16998074 739.40974409 -318.4480052 737.84148304 -316.15234375 736.390625 C-315.16234375 736.390625 -314.17234375 736.390625 -313.15234375 736.390625 C-312.96414063 735.84664062 -312.7759375 735.30265625 -312.58203125 734.7421875 C-310.4708522 731.26970174 -307.48186404 729.2065427 -304.27734375 726.765625 C-303.65214844 726.27578125 -303.02695313 725.7859375 -302.3828125 725.28125 C-299.89792544 723.35848327 -297.60688448 721.60969873 -294.76953125 720.2421875 C-292.78232754 719.43404554 -292.78232754 719.43404554 -292.15234375 716.390625 C-290.50413131 715.36049223 -288.83730673 714.35947872 -287.15234375 713.390625 C-286.82234375 712.730625 -286.49234375 712.070625 -286.15234375 711.390625 C-285.16234375 711.390625 -284.17234375 711.390625 -283.15234375 711.390625 C-282.82234375 710.400625 -282.49234375 709.410625 -282.15234375 708.390625 C-281.16234375 708.390625 -280.17234375 708.390625 -279.15234375 708.390625 C-279.15234375 707.730625 -279.15234375 707.070625 -279.15234375 706.390625 C-276.24685493 704.34893015 -274.75092329 703.390625 -271.15234375 703.390625 C-271.15234375 702.730625 -271.15234375 702.070625 -271.15234375 701.390625 C-269.3055192 700.02980691 -267.3976346 698.75130552 -265.46484375 697.515625 C-261.51260041 694.97730999 -257.78332816 692.37036686 -254.15234375 689.390625 C-249.80885937 686.05331475 -245.31006372 683.31457003 -240.48828125 680.72265625 C-237.27828098 678.89220459 -234.29215252 676.77996908 -231.29296875 674.625 C-228.91052002 673.2511792 -226.85861081 672.78804883 -224.15234375 672.390625 C-224.15234375 671.730625 -224.15234375 671.070625 -224.15234375 670.390625 C-223.35570312 670.00390625 -222.5590625 669.6171875 -221.73828125 669.21875 C-220.14886719 668.43757812 -220.14886719 668.43757812 -218.52734375 667.640625 C-217.48320313 667.13015625 -216.4390625 666.6196875 -215.36328125 666.09375 C-212.12778237 664.44812981 -212.12778237 664.44812981 -209.17578125 662.39453125 C-206.01636546 660.30049985 -202.8255235 658.70065025 -199.40234375 657.078125 C-194.03846791 654.48420639 -189.26159455 651.48358981 -184.46484375 647.95703125 C-181.49816397 645.9475066 -178.42873154 644.58538199 -175.12109375 643.234375 C-172.94800328 642.36174688 -172.94800328 642.36174688 -170.33984375 640.640625 C-168.15234375 639.390625 -168.15234375 639.390625 -164.15234375 639.390625 C-164.15234375 638.730625 -164.15234375 638.070625 -164.15234375 637.390625 C-162.99734375 636.81828125 -161.84234375 636.2459375 -160.65234375 635.65625 C-156.44733359 633.55374492 -152.29761888 631.3579108 -148.15234375 629.140625 C-142.30972291 626.03328926 -136.44295388 622.98181704 -130.52734375 620.015625 C-129.88925781 619.69432617 -129.25117187 619.37302734 -128.59375 619.04199219 C-125.58555328 617.54264361 -122.56164169 616.11448441 -119.46875 614.80078125 C-116.82646008 613.67726339 -114.2720314 612.50283322 -111.71484375 611.203125 C-110.87308594 610.77773438 -110.03132813 610.35234375 -109.1640625 609.9140625 C-108.17019531 609.41132812 -107.17632813 608.90859375 -106.15234375 608.390625 C-103.44527208 607.03393243 -100.7362442 605.68116156 -98.02734375 604.328125 C-96.0592286 603.34418815 -94.09120942 602.36006241 -92.12353516 601.37524414 C-90.79351654 600.71089375 -89.46243425 600.04866913 -88.13037109 599.38842773 C-83.71775553 597.19701666 -79.36215851 594.9190897 -75.02734375 592.578125 C-65.55890779 587.50044884 -56.04522738 582.59741196 -46.15234375 578.390625 C-44.81135576 577.76083957 -43.47630526 577.11795912 -42.15234375 576.453125 C-41.48460937 576.11796875 -40.816875 575.7828125 -40.12890625 575.4375 C-38.21519055 574.42391145 -36.37733092 573.3277868 -34.52734375 572.203125 C-31.25464975 570.44556711 -28.81906562 569.74835396 -25.15234375 569.390625 C-25.15234375 568.730625 -25.15234375 568.070625 -25.15234375 567.390625 C-23.86263672 566.86275391 -23.86263672 566.86275391 -22.546875 566.32421875 C-15.20206785 563.2565403 -8.21563331 559.8987788 -1.23828125 556.046875 C2.46777658 554.05780092 6.25650413 552.3412319 10.09765625 550.6328125 C17.77281006 547.16591064 25.11595124 543.30244347 32.28515625 538.890625 C35.08259823 537.25309799 37.93684159 535.81633014 40.84765625 534.390625 C46.37851624 531.67457768 51.60009439 528.61182067 56.84765625 525.390625 C64.26058107 520.89826512 71.78952985 516.82084553 79.59228516 513.05517578 C82.36836178 511.70304385 84.64733792 510.59094333 86.84765625 508.390625 C87.63140625 508.08125 88.41515625 507.771875 89.22265625 507.453125 C91.88257436 506.51852672 91.88257436 506.51852672 93.91015625 504.765625 C95.84765625 503.390625 95.84765625 503.390625 99.84765625 503.390625 C99.84765625 502.730625 99.84765625 502.070625 99.84765625 501.390625 C101.71779621 500.17032927 103.64616372 499.03858436 105.59765625 497.953125 C109.95041614 495.54544095 109.95041614 495.54544095 113.98828125 492.66796875 C115.84765625 491.390625 115.84765625 491.390625 119.84765625 491.390625 C120.17765625 490.400625 120.50765625 489.410625 120.84765625 488.390625 C122.5625 487.25 122.5625 487.25 124.78515625 486.140625 C129.19814099 483.81213068 133.17396264 481.12459593 137.2265625 478.22265625 C140.83522584 475.70035654 144.56165331 473.3829961 148.3046875 471.06640625 C150.93695618 469.40107917 150.93695618 469.40107917 153.484375 467.18359375 C155.84765625 465.390625 155.84765625 465.390625 158.84765625 465.390625 C159.17765625 464.400625 159.50765625 463.410625 159.84765625 462.390625 C162.08753085 460.62886076 164.31265793 458.99494546 166.66015625 457.390625 C167.91688166 456.51593382 169.1733975 455.64094143 170.4296875 454.765625 C171.32034912 454.15267578 171.32034912 454.15267578 172.22900391 453.52734375 C173.57216157 452.58409457 174.8776185 451.58742755 176.171875 450.578125 C177.84765625 449.390625 177.84765625 449.390625 179.84765625 449.390625 C179.84765625 448.730625 179.84765625 448.070625 179.84765625 447.390625 C181.28125 445.9453125 181.28125 445.9453125 183.28515625 444.265625 C187.26386948 440.89683929 191.12471235 437.4202268 194.96484375 433.89453125 C196.84765625 432.390625 196.84765625 432.390625 198.84765625 432.390625 C199.09515625 431.771875 199.34265625 431.153125 199.59765625 430.515625 C201.08505994 427.98703873 202.28443634 427.67223496 204.84765625 426.390625 C205.13640625 425.7925 205.42515625 425.194375 205.72265625 424.578125 C207.07024743 421.95780883 208.92242265 420.67587114 211.19921875 418.87109375 C215.18773769 415.28898788 218.05756471 410.59900029 220.97265625 406.140625 C222.74142499 403.54643085 224.6380648 401.60021645 226.84765625 399.390625 C227.38390625 398.483125 227.92015625 397.575625 228.47265625 396.640625 C229.15328125 395.526875 229.15328125 395.526875 229.84765625 394.390625 C230.50765625 394.390625 231.16765625 394.390625 231.84765625 394.390625 C231.94046875 393.83375 232.03328125 393.276875 232.12890625 392.703125 C233.31688062 388.8809466 235.8864891 386.01055462 238.25390625 382.828125 C239.72238267 380.58221988 240.41157798 379.00709463 240.84765625 376.390625 C241.50765625 376.390625 242.16765625 376.390625 242.84765625 376.390625 C243.07453125 375.4625 243.30140625 374.534375 243.53515625 373.578125 C244.71679015 369.40469462 246.53443117 365.61287637 248.43359375 361.72265625 C258.96001261 336.91869137 261.22291357 307.93219142 251.84765625 282.390625 C250.34485388 279.08298645 248.758389 275.87293432 247.01953125 272.68359375 C245.84765625 270.390625 245.84765625 270.390625 245.84765625 268.390625 C245.18765625 268.390625 244.52765625 268.390625 243.84765625 268.390625 C243.04328125 266.84375 243.04328125 266.84375 242.22265625 265.265625 C240.63644846 262.45267378 238.92625024 260.31291307 236.59765625 258.078125 C235.69015625 257.19125 234.78265625 256.304375 233.84765625 255.390625 C233.84765625 254.730625 233.84765625 254.070625 233.84765625 253.390625 C233.18765625 253.390625 232.52765625 253.390625 231.84765625 253.390625 C231.84765625 252.730625 231.84765625 252.070625 231.84765625 251.390625 C230.85765625 251.060625 229.86765625 250.730625 228.84765625 250.390625 C228.84765625 249.730625 228.84765625 249.070625 228.84765625 248.390625 C228.16445312 248.15730469 227.48125 247.92398438 226.77734375 247.68359375 C223.19588777 246.10297784 220.15879971 243.94331043 216.97265625 241.703125 C188.32582228 222.14020879 150.73391537 215.16045959 116.84765625 211.390625 C116.3371875 212.2878125 115.82671875 213.185 115.30078125 214.109375 C109.86789137 223.49149439 103.81118469 232.20518447 97.12890625 240.7409668 C96.04071411 242.14205564 94.99235526 243.57393833 93.953125 245.01171875 C81.22318847 259.39489379 62.16893038 265.04688058 43.84765625 267.390625 C41.96240234 267.66326172 41.96240234 267.66326172 40.0390625 267.94140625 C22.86138488 270.03064024 6.2995686 268.57749821 -10.15234375 263.390625 C-10.98523926 263.12830078 -11.81813477 262.86597656 -12.67626953 262.59570312 C-27.4274945 257.81152206 -40.15729809 251.76374478 -51.484375 240.921875 C-64.01369744 228.99092793 -64.01369744 228.99092793 -80.3203125 225.8515625 C-94.45409956 227.83980166 -106.36622546 238.30342891 -114.66918945 249.32177734 C-120.3503305 257.2002016 -124.72025683 265.96830151 -127.15234375 275.390625 C-127.45978516 276.56818359 -127.45978516 276.56818359 -127.7734375 277.76953125 C-131.83029529 296.99064366 -128.76506981 315.94959535 -124.5625 334.79296875 C-119.50265672 357.76294862 -122.02358697 381.32351047 -125.70043945 404.31030273 C-126.23968019 407.98593771 -126.5891847 411.65823355 -126.86572266 415.36206055 C-127.29392337 418.39265657 -128.6783379 420.73741448 -130.15234375 423.390625 C-131.12911437 426.48373196 -132.03985145 429.43113183 -132.41796875 432.65625 C-133.4403394 436.46294921 -135.55477139 439.38289815 -137.77734375 442.578125 C-138.22811279 443.23868896 -138.67888184 443.89925293 -139.14331055 444.57983398 C-140.472 446.52216475 -141.81151277 448.45666503 -143.15234375 450.390625 C-143.82652344 451.37804687 -144.50070312 452.36546875 -145.1953125 453.3828125 C-146.81885527 455.74107109 -148.47417241 458.07105834 -150.15234375 460.390625 C-151.23515625 461.9065625 -151.23515625 461.9065625 -152.33984375 463.453125 C-159.41760547 471.59835242 -169.770441 478.79732767 -180.74609375 479.57421875 C-186.94118793 479.2778485 -192.38494339 477.40479447 -197.15234375 473.390625 C-199.52190373 470.24037473 -201.30745765 466.86611865 -203.15234375 463.390625 C-208.27722078 455.05712931 -214.42110086 447.44460031 -220.43603516 439.74804688 C-238.15234375 417.05478685 -238.15234375 417.05478685 -238.15234375 413.390625 C-238.6628125 413.68195313 -239.17328125 413.97328125 -239.69921875 414.2734375 C-264.02193986 427.98731217 -264.02193986 427.98731217 -277.15234375 426.390625 C-280.40928627 425.24264367 -283.66921353 423.87375522 -286.15234375 421.390625 C-287.01705615 414.91236977 -285.9360472 409.72751537 -282.15234375 404.390625 C-278.75657904 400.718239 -274.6832231 398.44030852 -270.15234375 396.390625 C-271.20421875 395.730625 -272.25609375 395.070625 -273.33984375 394.390625 C-278.32024399 390.8548439 -281.2365045 386.13814276 -283.15234375 380.390625 C-283.64968733 375.96345179 -284.01760274 372.54430366 -281.27734375 368.890625 C-277.04191224 365.90090864 -273.2100247 365.84526206 -268.15234375 366.390625 C-261.84563138 368.05119183 -257.19132321 370.25213957 -252.15234375 374.390625 C-252.3659526 368.20095378 -252.5965117 362.01221784 -252.84204102 355.82373047 C-252.92307409 353.72331461 -252.99966632 351.62272211 -253.0715332 349.52197266 C-252.62722478 330.10421752 -252.62722478 330.10421752 -260.71484375 313.578125 C-261.76865234 312.64033203 -261.76865234 312.64033203 -262.84375 311.68359375 C-271.97447548 302.61466675 -277.87898435 289.97160623 -283.15234375 278.390625 C-283.46300781 277.71273926 -283.77367187 277.03485352 -284.09375 276.33642578 C-303.35495702 233.69380586 -303.36141501 180.69467706 -287.22412109 137.13476562 C-284.67964545 130.6199806 -281.52755584 124.50575056 -278.15234375 118.390625 C-277.3364877 116.87279974 -276.52141639 115.35455248 -275.70703125 113.8359375 C-271.49412946 106.05129806 -267.10588182 98.48228143 -262.078125 91.1875 C-260.75181442 89.26125584 -259.459217 87.31150551 -258.1953125 85.34375 C-241.27954353 59.05257456 -212.59139017 39.56327544 -185.15234375 25.390625 C-184.02771729 24.80087891 -184.02771729 24.80087891 -182.88037109 24.19921875 C-171.0076338 18.03262025 -158.93758166 13.72337684 -146.046875 10.18603516 C-144.19453748 9.6770173 -142.34519453 9.15689052 -140.5 8.62255859 C-126.04263778 4.44025024 -111.36813928 1.94919677 -96.52734375 -0.421875 C-95.57517975 -0.57503174 -94.62301575 -0.72818848 -93.64199829 -0.88598633 C-61.99233925 -5.93601759 -31.61399264 -5.27609029 0 0 Z " fill="#010101" transform="translate(1544.15234375,56.609375)"/>
<path d="M0 0 C3.27286682 2.7819368 4.96427697 6.27954067 7 10 C6.01 10 5.02 10 4 10 C2.578125 8.3203125 2.578125 8.3203125 1.25 6.125 C0.57710937 5.04605469 0.57710937 5.04605469 -0.109375 3.9453125 C-0.40328125 3.30335938 -0.6971875 2.66140625 -1 2 C-0.67 1.34 -0.34 0.68 0 0 Z " fill="#000000" transform="translate(1249,548)"/>
</svg>
