<svg width="4096" height="1714" viewBox="0 0 4096 1714" xmlns="http://www.w3.org/2000/svg">
<path d="M2036.12 199.25C2057.63 216.157 2071.03 235.708 2083.03 260.06C2083.67 261.34 2084.32 262.615 2084.98 263.884C2093.93 281.24 2098.92 300.008 2103 319C2103.25 320.12 2103.5 321.239 2103.76 322.393C2108.75 344.987 2110.43 367.825 2111.75 390.875C2111.85 392.551 2111.85 392.551 2111.95 394.261C2112.86 410.232 2113.64 426.203 2112.56 442.187C2112.5 443.213 2112.5 443.213 2112.44 444.26C2112.2 448.232 2111.68 452.082 2111 456C2102.13 456.182 2093.25 456.346 2084.37 456.5C2083.33 456.518 2083.33 456.518 2082.27 456.536C2055.91 456.988 2029.55 457.049 2003.19 457C1974.53 456.947 1945.91 457.111 1917.25 457.846C1909.17 458.043 1901.09 458.048 1893 458C1893.57 483.943 1896.64 511.061 1904 536C1904.23 536.772 1904.46 537.545 1904.69 538.341C1910.77 558.448 1919.24 577.186 1932.82 593.398C1934 595 1934 595 1934 597C1934.99 597.33 1935.98 597.66 1937 598C1937.75 598.771 1938.5 599.542 1939.27 600.336C1950.42 611.215 1968.19 614.353 1983.16 614.526C1994.59 614.26 2004.92 608.731 2013.4 601.285C2015 600 2015 600 2017 600C2017.66 598.68 2018.32 597.36 2019 596C2019.66 596 2020.32 596 2021 596C2021.24 595.448 2021.49 594.897 2021.74 594.328C2023.26 591.525 2025.13 589.236 2027.12 586.75C2032.11 580.295 2035.65 573.385 2039.06 566.003C2039.93 564.144 2040.85 562.309 2041.77 560.477C2047.83 547.851 2050.89 534.257 2054.26 520.727C2055 518 2055 518 2056 516C2069.7 518.499 2083.4 521.038 2097.06 523.75C2098.13 523.96 2099.2 524.171 2100.3 524.387C2101.29 524.584 2102.27 524.781 2103.29 524.984C2104.15 525.157 2105.02 525.329 2105.91 525.507C2108 526 2108 526 2110 527C2103.76 572.757 2088.01 617.139 2057 652C2056.41 652.679 2055.81 653.359 2055.2 654.059C2050.82 658.768 2045.57 662.255 2040.24 665.805C2038.31 667.11 2036.41 668.456 2034.57 669.883C2018.15 682.555 1997.54 685.227 1977.44 685.375C1975.5 685.396 1975.5 685.396 1973.53 685.418C1961.38 685.357 1949.72 683.444 1938.31 679.187C1937.6 678.927 1936.89 678.667 1936.16 678.399C1907.01 667.469 1885.91 644.294 1872 617C1870.98 615.228 1869.96 613.457 1868.94 611.687C1865.47 605.347 1863.08 598.65 1860.66 591.857C1859.76 589.332 1858.81 586.824 1857.87 584.312C1855.69 578.274 1853.84 572.149 1852 566C1851.68 565.014 1851.36 564.028 1851.04 563.012C1837.51 519.397 1837.66 472.693 1838.23 427.542C1838.25 425.539 1838.27 423.537 1838.29 421.535C1838.62 389.775 1842.01 358.122 1849.47 327.206C1850.02 324.905 1850.55 322.599 1851.08 320.293C1856.31 298.006 1863.44 275.854 1875 256C1875.92 254.273 1876.84 252.544 1877.75 250.812C1883.87 239.643 1891.25 230.019 1899.66 220.524C1900.79 219.236 1901.9 217.929 1903.01 216.617C1935.07 178.587 1995.69 169.739 2036.12 199.25ZM1932.93 275.227C1919.84 290.503 1912.46 308.145 1906 327C1905.57 328.19 1905.14 329.38 1904.7 330.605C1901.37 340.351 1900.02 350.615 1898.42 360.754C1898 363 1898 363 1897 366C1896.85 367.626 1896.75 369.256 1896.68 370.887C1896.64 371.824 1896.6 372.762 1896.56 373.729C1896.52 374.705 1896.48 375.681 1896.44 376.687C1896.39 377.676 1896.35 378.664 1896.31 379.682C1896.2 382.121 1896.1 384.56 1896 387C1928.97 387.159 1928.97 387.159 1961.94 386.5C1981.93 385.842 2001.93 385.917 2021.94 385.937C2023.2 385.939 2023.2 385.939 2024.49 385.94C2034.99 385.952 2045.5 385.972 2056 386C2056.38 366.734 2056.38 366.734 2054.31 347.625C2054.13 346.555 2053.95 345.484 2053.77 344.382C2048.4 313.582 2037.12 282.163 2011.5 262.5C2006.03 258.747 2000.23 256.223 1994 254C1993.01 253.631 1992.02 253.263 1991 252.883C1969.4 246.518 1947.05 260.037 1932.93 275.227Z" fill="black"/>
<path d="M2341 184C2342.01 184.327 2343.03 184.655 2344.07 184.992C2366.12 193.046 2383.61 211.24 2393.5 232.081C2401.27 249.133 2406.35 267.484 2409 286C2409.37 287.98 2409.75 289.959 2410.13 291.938C2412.91 309.269 2412.33 327.292 2412.59 344.79C2412.6 345.477 2412.61 346.165 2412.63 346.873C2413.12 378.742 2412.94 410.595 2412.59 442.465C2412.53 447.922 2412.47 453.379 2412.42 458.836C2412.4 460.025 2412.4 460.025 2412.39 461.238C2412.38 462.85 2412.36 464.461 2412.34 466.073C2412.2 480.931 2412.04 495.787 2411.88 510.644C2411.74 523.368 2411.61 536.092 2411.49 548.815C2411.34 563.734 2411.2 578.652 2411.04 593.57C2411.02 595.156 2411 596.741 2410.99 598.327C2410.98 599.106 2410.97 599.886 2410.96 600.689C2410.9 606.165 2410.85 611.641 2410.8 617.117C2410.74 623.749 2410.67 630.38 2410.59 637.011C2410.55 640.388 2410.51 643.765 2410.48 647.142C2410.45 650.794 2410.41 654.446 2410.36 658.098C2410.35 659.706 2410.35 659.706 2410.34 661.347C2410.33 662.32 2410.31 663.294 2410.3 664.296C2410.29 665.138 2410.28 665.98 2410.27 666.848C2410 669 2410 669 2408 672C2397.92 674.519 2386.07 672.892 2375.75 672.562C2373.93 672.509 2372.1 672.456 2370.28 672.404C2365.85 672.277 2361.43 672.141 2357 672C2356.04 664.799 2355.89 657.785 2355.96 650.527C2355.97 649.299 2355.98 648.072 2355.99 646.807C2356.01 643.439 2356.04 640.071 2356.07 636.703C2356.1 633.103 2356.12 629.504 2356.15 625.905C2356.2 618.949 2356.26 611.993 2356.32 605.037C2356.36 599.411 2356.41 593.785 2356.45 588.16C2356.46 586.961 2356.46 586.961 2356.47 585.738C2356.47 584.938 2356.48 584.138 2356.49 583.314C2356.77 546.532 2357.11 509.751 2357.53 472.971C2366.13 369.583 2366.13 369.583 2339 274C2337.67 272.666 2336.34 271.332 2335 270C2335 269.34 2335 268.68 2335 268C2334.41 267.729 2333.81 267.459 2333.2 267.18C2331.03 266.018 2329.54 264.8 2327.75 263.125C2318.22 254.798 2307.34 254.257 2295.06 254.825C2276.38 256.408 2263.12 267.384 2251.5 280.914C2242.68 291.988 2237.69 304.43 2234 318C2233.77 318.752 2233.55 319.503 2233.31 320.278C2231.14 327.692 2229.88 335.169 2228.8 342.806C2228.51 344.85 2228.2 346.891 2227.89 348.932C2223.74 377.332 2222.54 405.935 2222.33 434.594C2222.29 438.907 2222.24 443.219 2222.19 447.532C2222.1 455.795 2222.02 464.057 2221.95 472.32C2221.87 481.827 2221.77 491.335 2221.67 500.842C2221.49 517.811 2221.33 534.78 2221.17 551.749C2221.06 563.833 2220.94 575.918 2220.82 588.002C2220.81 588.696 2220.81 589.39 2220.8 590.105C2220.76 593.475 2220.73 596.845 2220.7 600.215C2220.45 624.477 2220.22 648.738 2220 673C2201.54 674.155 2201.54 674.155 2193.97 674.168C2193.25 674.171 2192.52 674.175 2191.77 674.178C2190.28 674.183 2188.79 674.185 2187.3 674.185C2185.01 674.188 2182.72 674.206 2180.43 674.225C2178.97 674.228 2177.5 674.23 2176.04 674.23C2174.73 674.235 2173.42 674.239 2172.08 674.243C2169 674 2169 674 2167 672C2166.76 669.791 2166.76 669.791 2166.76 666.989C2166.76 665.928 2166.76 664.867 2166.76 663.775C2166.77 662.023 2166.77 662.023 2166.78 660.236C2166.78 659.013 2166.79 657.79 2166.79 656.53C2166.79 653.164 2166.81 649.798 2166.83 646.431C2166.84 643.58 2166.85 640.728 2166.85 637.877C2166.93 609.356 2167.22 580.835 2167.55 552.316C2167.63 545.089 2167.71 537.863 2167.79 530.637C2167.93 517.59 2168.08 504.544 2168.23 491.497C2168.24 490.727 2168.24 489.957 2168.25 489.164C2168.29 486.055 2168.32 482.945 2168.36 479.835C2168.61 457.827 2168.85 435.819 2169.1 413.811C2169.18 406.29 2169.26 398.769 2169.35 391.248C2169.71 358.9 2170.03 326.552 2170.22 294.202C2170.25 289.457 2170.28 284.712 2170.31 279.967C2170.33 276.874 2170.35 273.782 2170.37 270.689C2170.37 269.933 2170.38 269.177 2170.38 268.397C2170.44 259.463 2170.48 250.528 2170.52 241.594C2170.55 235.432 2170.58 229.271 2170.62 223.11C2170.63 220.587 2170.64 218.064 2170.65 215.54C2170.66 212.11 2170.68 208.68 2170.71 205.251C2170.71 204.245 2170.71 203.239 2170.71 202.203C2170.71 201.29 2170.72 200.376 2170.73 199.435C2170.74 198.645 2170.74 197.855 2170.74 197.042C2171 195 2171 195 2173 192C2177.4 190.881 2181.75 190.871 2186.27 190.867C2186.95 190.866 2187.63 190.865 2188.33 190.864C2189.76 190.864 2191.2 190.865 2192.63 190.87C2194.8 190.875 2196.96 190.87 2199.13 190.863C2200.53 190.864 2201.93 190.865 2203.33 190.867C2204.59 190.868 2205.84 190.869 2207.14 190.871C2211.44 191.015 2215.72 191.525 2220 192C2220 211.14 2220 230.28 2220 250C2224.29 242.41 2228.58 234.82 2233 227C2238.12 219.396 2243.72 212.666 2250 206C2250.57 205.362 2251.15 204.724 2251.74 204.066C2256.5 198.968 2262.04 195.558 2268 192C2268.96 191.388 2269.93 190.775 2270.92 190.145C2291.31 177.514 2318.53 176.163 2341 184Z" fill="black"/>
<path d="M2547 22C2547.99 22 2548.98 22 2550 22C2551.7 25.405 2551.12 29.2912 2551.09 33.0356C2551.08 34.4858 2551.08 34.4858 2551.08 35.9652C2551.01 49.6797 2550.8 63.3934 2550.6 77.1065C2550.54 81.0555 2550.48 85.0046 2550.43 88.9536C2550.32 96.3938 2550.22 103.834 2550.11 111.274C2549.99 119.761 2549.87 128.247 2549.75 136.733C2549.5 154.156 2549.25 171.578 2549 189C2549.78 188.838 2550.56 188.675 2551.36 188.508C2553.81 188.036 2555.99 187.873 2558.48 187.871C2559.76 187.866 2559.76 187.866 2561.07 187.861C2561.98 187.863 2562.89 187.865 2563.82 187.867C2564.77 187.866 2565.71 187.865 2566.68 187.864C2568.67 187.864 2570.65 187.865 2572.64 187.87C2575.69 187.875 2578.74 187.87 2581.78 187.863C2583.71 187.864 2585.64 187.865 2587.57 187.867C2588.49 187.865 2589.4 187.863 2590.35 187.861C2591.19 187.864 2592.03 187.867 2592.9 187.871C2594.02 187.872 2594.02 187.872 2595.16 187.873C2597 188 2597 188 2599 189C2599.03 195.042 2599.04 201.085 2599.05 207.127C2599.06 209.173 2599.07 211.219 2599.08 213.265C2599.12 223.995 2599.07 234.702 2598.56 245.422C2598.52 246.276 2598.48 247.129 2598.44 248.009C2598.13 253.874 2598.13 253.874 2597 255C2588.21 256.258 2579.41 256.153 2570.55 256.13C2567.98 256.125 2565.41 256.13 2562.84 256.137C2561.21 256.136 2559.57 256.135 2557.94 256.133C2557.17 256.135 2556.4 256.137 2555.61 256.139C2550.23 256.115 2550.23 256.115 2548 255C2548 255.836 2548 256.671 2548.01 257.532C2548.12 300.808 2548.03 344.078 2547.56 387.352C2547.55 388.863 2547.55 388.863 2547.53 390.406C2547.4 402.706 2547.25 415.005 2547.11 427.305C2546.91 443.993 2546.72 460.682 2546.54 477.37C2546.47 483.162 2546.41 488.955 2546.34 494.747C2546.14 511.404 2545.96 528.062 2545.91 544.72C2545.91 546.159 2545.9 547.597 2545.89 549.036C2545.43 572.203 2545.43 572.203 2556 592C2563.26 597.816 2573.31 596.7 2582.04 595.786C2586.05 595.3 2590.03 594.686 2594 594C2595.91 598.979 2596.54 603.627 2597 608.887C2597.08 609.743 2597.16 610.6 2597.25 611.482C2597.5 614.217 2597.75 616.952 2598 619.688C2598.25 622.365 2598.5 625.042 2598.75 627.72C2598.92 629.499 2599.08 631.278 2599.25 633.057C2599.65 637.46 2600.09 641.858 2600.57 646.252C2600.66 647.097 2600.76 647.941 2600.85 648.811C2601.03 650.387 2601.21 651.963 2601.39 653.538C2601.97 658.72 2602.07 663.785 2602 669C2601.05 669.266 2600.09 669.531 2599.11 669.805C2597.86 670.158 2596.6 670.511 2595.31 670.875C2594.07 671.223 2592.83 671.571 2591.55 671.93C2588.12 672.905 2588.12 672.905 2585.37 674.062C2568.97 680.556 2547.43 677.94 2531.41 671.574C2516.39 664.398 2506.93 651.28 2501.01 635.926C2495.55 620.075 2493.68 604.09 2492.86 587.449C2492.81 586.61 2492.77 585.77 2492.73 584.905C2491.74 564.901 2491.96 544.942 2492.27 524.924C2492.4 516.006 2492.5 507.088 2492.6 498.17C2492.63 495.715 2492.66 493.259 2492.69 490.804C2492.97 467.272 2493.13 443.74 2493.26 420.207C2493.27 418.377 2493.28 416.547 2493.29 414.718C2493.38 398.255 2493.47 381.792 2493.55 365.33C2493.6 354.993 2493.66 344.657 2493.72 334.32C2493.72 333.503 2493.73 332.686 2493.73 331.844C2493.88 306.555 2494.19 281.278 2495 256C2493.22 256.068 2491.44 256.136 2489.67 256.204C2488.16 256.262 2486.66 256.32 2485.15 256.377C2482.04 256.495 2478.93 256.615 2475.83 256.744C2473.72 256.831 2471.62 256.906 2469.51 256.977C2468.47 257.024 2468.47 257.024 2467.4 257.073C2463.66 257.188 2462.21 257.141 2459 255C2458.72 252.07 2458.63 249.355 2458.67 246.426C2458.67 245.557 2458.67 244.689 2458.68 243.794C2458.69 240.967 2458.72 238.14 2458.75 235.312C2458.76 233.388 2458.77 231.464 2458.79 229.539C2459.06 190.936 2459.06 190.936 2461 189C2463.07 188.9 2465.15 188.869 2467.23 188.867C2468.51 188.866 2469.79 188.865 2471.1 188.863C2472.11 188.866 2472.11 188.866 2473.14 188.87C2475.16 188.875 2477.19 188.87 2479.21 188.863C2481.14 188.865 2481.14 188.865 2483.11 188.867C2484.87 188.869 2484.87 188.869 2486.67 188.871C2489.87 188.995 2492.85 189.446 2496 190C2496 188.979 2496 187.958 2495.99 186.906C2495.97 177.129 2495.96 167.353 2495.95 157.576C2495.94 152.554 2495.94 147.531 2495.92 142.509C2495.9 131.973 2495.91 121.438 2495.98 110.902C2496.01 105.908 2495.97 100.923 2495.86 95.9309C2495.33 71.4291 2495.33 71.4291 2502.24 63.8633C2504.34 61.8504 2506.57 60.0841 2508.87 58.3125C2510.01 57.3393 2511.13 56.3582 2512.25 55.3691C2514.29 53.5773 2516.35 51.8643 2518.47 50.1653C2520.73 48.2335 2522.24 46.3565 2524 44C2524.66 44 2525.32 44 2526 44C2526.24 43.4289 2526.49 42.8579 2526.74 42.2695C2530.46 35.565 2537.6 30.3423 2543.37 25.4102C2544.63 24.3237 2545.83 23.1737 2547 22Z" fill="black"/>
<path d="M1816.6 196.715C1820.47 199.511 1820.47 199.511 1822 201C1822 201.66 1822 202.32 1822 203C1822.56 203.227 1823.11 203.454 1823.69 203.688C1826.84 205.474 1828.8 207.102 1831 210C1830.62 217.18 1828.67 224.154 1827 231.125C1826.54 233.087 1826.07 235.05 1825.61 237.012C1825.1 239.14 1824.6 241.267 1824.09 243.394C1823.12 247.497 1822.15 251.602 1821.19 255.708C1820.37 259.198 1819.55 262.688 1818.73 266.177C1818.33 267.891 1817.92 269.605 1817.52 271.319C1816.96 273.729 1816.39 276.138 1815.82 278.547C1815.65 279.273 1815.48 279.998 1815.31 280.746C1814.11 285.772 1814.11 285.772 1813 288C1808.96 287.431 1806.72 285.307 1803.62 282.75C1795.09 276.044 1784.03 271.399 1773 272C1760.21 274.002 1752.63 280.035 1744.9 290.152C1742.59 293.608 1740.68 297.168 1738.81 300.875C1738.49 301.51 1738.17 302.146 1737.84 302.8C1728.96 321.034 1726.14 340.991 1723.81 360.938C1723.66 362.236 1723.5 363.534 1723.34 364.871C1719.52 398.625 1719.54 432.592 1719.21 466.512C1719.14 473.793 1719.06 481.074 1718.98 488.354C1718.84 501.33 1718.7 514.306 1718.57 527.283C1718.44 539.862 1718.31 552.441 1718.17 565.02C1718.16 565.8 1718.15 566.58 1718.15 567.383C1718.1 571.297 1718.06 575.211 1718.02 579.125C1717.67 611.416 1717.33 643.708 1717 676C1714.52 677.242 1712.87 677.12 1710.09 677.114C1709.07 677.113 1708.05 677.113 1707 677.113C1705.34 677.106 1705.34 677.106 1703.65 677.098C1701.95 677.096 1701.95 677.096 1700.23 677.093C1696.61 677.088 1692.99 677.075 1689.37 677.063C1686.93 677.058 1684.48 677.053 1682.03 677.049C1676.02 677.038 1670.01 677.021 1664 677C1662.83 674.656 1662.91 673.383 1662.96 670.776C1662.98 669.881 1663 668.986 1663.01 668.065C1663.05 666.576 1663.05 666.576 1663.09 665.057C1663.11 664.003 1663.13 662.949 1663.15 661.863C1663.2 659.528 1663.24 657.193 1663.29 654.857C1663.44 648.243 1663.56 641.628 1663.68 635.013C1663.7 633.942 1663.7 633.942 1663.72 632.85C1664.06 614.472 1664.29 596.092 1664.5 577.711C1664.51 576.843 1664.52 575.975 1664.53 575.081C1664.67 563.11 1664.8 551.139 1664.94 539.169C1664.98 535.278 1665.02 531.388 1665.07 527.497C1665.59 480.388 1666.05 433.279 1666.32 386.168C1666.32 385.179 1666.33 384.19 1666.33 383.171C1666.45 363.182 1666.55 343.192 1666.63 323.202C1666.67 314.552 1666.71 305.903 1666.75 297.254C1666.76 296.432 1666.76 295.609 1666.77 294.762C1666.92 261.837 1667.38 228.92 1668 196C1670.93 194.535 1673.97 194.621 1677.19 194.438C1677.9 194.396 1678.62 194.354 1679.35 194.311C1691.21 193.671 1703.19 193.581 1715 195C1716.73 196.731 1716.17 199.078 1716.21 201.438C1716.24 203.179 1716.24 203.179 1716.27 204.956C1716.28 206.22 1716.3 207.483 1716.32 208.785C1716.34 210.071 1716.36 211.357 1716.38 212.682C1716.43 216.106 1716.48 219.531 1716.53 222.955C1716.58 226.447 1716.64 229.94 1716.69 233.432C1716.8 240.288 1716.9 247.144 1717 254C1717.39 253.025 1717.77 252.05 1718.17 251.046C1729.29 223.09 1729.29 223.09 1737 211C1737.65 209.795 1738.3 208.587 1738.94 207.375C1745.41 196.784 1755.92 188.004 1767.97 184.413C1785.84 180.776 1801.83 186.963 1816.6 196.715Z" fill="black"/>
<path d="M2148 759C2148.63 761.184 2149.15 763.395 2149.64 765.614C2149.79 766.303 2149.94 766.991 2150.1 767.7C2150.61 770.021 2151.11 772.345 2151.61 774.668C2151.98 776.333 2152.34 777.998 2152.71 779.663C2153.5 783.267 2154.29 786.873 2155.07 790.479C2156.32 796.237 2157.58 801.993 2158.85 807.749C2160.18 813.825 2161.51 819.902 2162.84 825.979C2166.07 840.795 2169.34 855.606 2172.61 870.414C2172.96 871.982 2172.96 871.982 2173.31 873.581C2174.47 878.796 2175.62 884.01 2176.78 889.225C2178.09 895.14 2179.4 901.056 2180.7 906.971C2180.91 907.913 2181.12 908.854 2181.34 909.824C2182.36 914.45 2183.38 919.078 2184.4 923.705C2184.8 925.511 2185.2 927.317 2185.59 929.124C2185.89 930.456 2185.89 930.455 2186.19 931.814C2187.43 937.458 2188.69 943.098 2189.96 948.737C2190.81 952.535 2191.66 956.335 2192.51 960.134C2192.91 961.927 2193.31 963.719 2193.72 965.51C2194.28 967.978 2194.83 970.448 2195.38 972.919C2195.54 973.637 2195.71 974.356 2195.88 975.096C2196.85 979.526 2197.15 983.5 2197 988C2194.25 988.027 2191.5 988.047 2188.75 988.062C2187.97 988.071 2187.2 988.079 2186.39 988.088C2185.64 988.091 2184.89 988.094 2184.11 988.098C2183.42 988.103 2182.73 988.108 2182.01 988.114C2179.9 987.994 2178.05 987.538 2176 987C2173.9 978.829 2172.01 970.635 2170.3 962.375C2170.06 961.225 2169.82 960.075 2169.57 958.89C2169.07 956.484 2168.57 954.077 2168.07 951.67C2167.31 947.981 2166.54 944.293 2165.76 940.605C2165.28 938.258 2164.79 935.91 2164.3 933.562C2164.07 932.461 2163.84 931.36 2163.6 930.226C2163.39 929.204 2163.18 928.182 2162.96 927.129C2162.78 926.232 2162.59 925.336 2162.4 924.412C2162 922 2162 922 2162 918C2161.34 918.33 2160.68 918.66 2160 919C2157.16 919.099 2154.35 919.14 2151.52 919.133C2150.25 919.134 2150.25 919.134 2148.96 919.136C2147.16 919.136 2145.37 919.135 2143.57 919.13C2140.84 919.125 2138.11 919.13 2135.38 919.137C2133.64 919.136 2131.89 919.135 2130.14 919.133C2129.33 919.135 2128.52 919.137 2127.69 919.139C2123.02 919.12 2118.6 918.773 2114 918C2113.9 918.706 2113.8 919.413 2113.7 920.141C2112.06 931.397 2109.74 942.503 2107.46 953.644C2106.93 956.241 2106.4 958.839 2105.87 961.438C2105.71 962.266 2105.54 963.095 2105.37 963.949C2104.18 969.866 2103.21 975.782 2102.39 981.762C2102 984 2102 984 2101 985C2099.66 985.086 2098.31 985.107 2096.96 985.098C2096.16 985.094 2095.35 985.091 2094.51 985.088C2093.66 985.08 2092.81 985.071 2091.94 985.062C2091.08 985.058 2090.23 985.053 2089.35 985.049C2087.23 985.037 2085.12 985.019 2083 985C2081.78 981.426 2082.21 978.811 2082.94 975.14C2083.29 973.351 2083.29 973.351 2083.64 971.526C2083.91 970.211 2084.18 968.896 2084.45 967.582C2084.72 966.198 2085 964.815 2085.27 963.431C2088.32 948.122 2091.58 932.856 2094.83 917.589C2101.74 885.229 2101.74 885.229 2108.06 852.75C2111.42 834.63 2115.07 816.572 2118.78 798.522C2119.47 795.187 2120.15 791.85 2120.82 788.512C2121.62 784.569 2122.43 780.629 2123.25 776.69C2123.55 775.217 2123.85 773.743 2124.15 772.268C2124.56 770.232 2124.98 768.201 2125.41 766.17C2125.65 765.022 2125.88 763.874 2126.12 762.691C2127 760 2127 760 2130 758C2132.72 757.646 2135.33 757.4 2138.06 757.25C2138.8 757.195 2139.53 757.139 2140.28 757.082C2145.75 756.751 2145.75 756.751 2148 759ZM2136 796C2135.91 796.711 2135.82 797.421 2135.73 798.153C2132.95 819.817 2128.94 841.212 2124.69 862.625C2124.48 863.675 2124.48 863.675 2124.27 864.747C2122.52 873.501 2120.77 882.252 2119 891C2128.3 891.88 2128.3 891.88 2137.64 891.879C2138.73 891.831 2139.82 891.782 2140.94 891.732C2142.03 891.676 2143.13 891.62 2144.25 891.562C2145.39 891.51 2146.53 891.458 2147.7 891.404C2150.47 891.276 2153.23 891.14 2156 891C2154.49 880.356 2152.47 869.841 2150.37 859.301C2150.02 857.531 2149.67 855.76 2149.32 853.99C2148.59 850.309 2147.86 846.629 2147.12 842.949C2146.18 838.229 2145.25 833.506 2144.32 828.783C2143.6 825.14 2142.87 821.499 2142.15 817.858C2141.8 816.116 2141.46 814.373 2141.11 812.63C2140.64 810.207 2140.15 807.785 2139.66 805.364C2139.52 804.644 2139.39 803.924 2139.24 803.181C2138.46 799.179 2138.46 799.179 2136 796Z" fill="black"/>
<path d="M1846.18 860.1C1848.59 860.416 1850.97 860.533 1853.39 860.647C1859.38 861.032 1864.96 862.332 1870.69 863.953C1871.39 864.148 1872.09 864.343 1872.81 864.543C1882.3 867.231 1890.66 869.862 1898.29 876.105C1898.94 876.637 1899.59 877.168 1900.26 877.716C1902.12 879.292 1903.93 880.911 1905.75 882.538C1907.01 883.597 1908.26 884.654 1909.52 885.71C1913.28 888.949 1916.61 892.467 1919.92 896.12C1920.37 896.605 1920.82 897.091 1921.29 897.591C1922.59 898.993 1923.87 900.411 1925.14 901.838C1925.61 902.355 1926.08 902.872 1926.56 903.405C1929.66 906.971 1932.33 910.694 1934.84 914.66C1935.14 915.126 1935.43 915.591 1935.74 916.07C1937.82 919.441 1937.82 919.441 1937.82 921.853C1938.44 921.975 1939.05 922.096 1939.68 922.221C1944.41 923.205 1948.84 924.346 1953.29 926.167C1954.84 926.797 1956.38 927.349 1957.97 927.884C1961.59 929.164 1964.99 930.875 1968.41 932.575C1968.41 933.047 1968.41 933.519 1968.41 934.005C1969.17 934.093 1969.17 934.093 1969.95 934.183C1976.28 935.732 1981.89 940.425 1987.2 943.967C1987.66 944.265 1988.12 944.564 1988.59 944.871C1991.35 946.728 1992.84 948.308 1994.52 951.16C1996.13 952.546 1996.13 952.546 1997.97 953.796C2006.71 960.299 2012.85 969.003 2018.64 977.924C2019.77 979.593 2020.97 981.141 2022.26 982.701C2024.18 985.098 2025.44 987.517 2026.64 990.31C2027.34 991.9 2028.16 993.381 2029.02 994.898C2030.31 997.312 2030.61 999.17 2030.32 1001.91C2031.06 1002.15 2031.8 1002.38 2032.56 1002.63C2033.18 1003.91 2033.18 1003.91 2033.66 1005.57C2033.92 1006.48 2033.92 1006.48 2034.2 1007.41C2034.38 1008.06 2034.57 1008.7 2034.75 1009.37C2036.41 1015.09 2036.41 1015.09 2038.62 1020.63C2042.53 1029.44 2043.72 1039.53 2045.01 1048.95C2045.13 1049.82 2045.13 1049.82 2045.25 1050.7C2048.77 1076.68 2050.21 1108.11 2041.48 1133.33C2040.55 1136.28 2040.04 1139.22 2039.57 1142.26C2039.04 1145.69 2038.18 1148.8 2037 1152.07C2036.44 1153.74 2035.92 1155.4 2035.42 1157.08C2031.72 1169.63 2031.72 1169.63 2028.45 1173.3C2026.99 1175.4 2026.61 1177.39 2026.04 1179.85C2024.16 1187.26 2020.43 1194 2015.41 1199.91C2014.91 1199.91 2014.42 1199.91 2013.91 1199.91C2013.84 1200.35 2013.77 1200.78 2013.69 1201.22C2012.99 1204.81 2012.42 1206.78 2009.44 1209.21C2008.65 1210.37 2007.91 1211.57 2007.2 1212.78C2006.66 1213.69 2006.11 1214.6 2005.57 1215.51C2005.12 1216.26 2004.68 1217.01 2004.22 1217.78C2003.72 1217.78 2003.23 1217.78 2002.72 1217.78C2002.54 1218.23 2002.35 1218.67 2002.16 1219.12C2001.23 1220.64 2001.23 1220.64 1999.69 1221.36C1998.1 1221.94 1998.1 1221.94 1997.74 1223.5C1997.62 1224.21 1997.62 1224.21 1997.5 1224.93C1997.26 1225.4 1997.01 1225.88 1996.76 1226.36C1996.26 1226.36 1995.77 1226.36 1995.26 1226.36C1995.22 1226.76 1995.17 1227.16 1995.12 1227.57C1994.26 1229.94 1992.69 1231.09 1990.79 1232.8C1989.96 1233.58 1989.14 1234.37 1988.32 1235.16C1987.66 1235.8 1986.99 1236.43 1986.31 1237.08C1987.25 1239.4 1988.28 1241.63 1989.46 1243.85C1996.68 1257.69 2002.25 1272.08 2007.01 1286.85C2007.2 1287.43 2007.39 1288 2007.58 1288.6C2008.41 1291.27 2008.81 1293.04 2007.95 1295.7C2004.65 1294.71 2002.3 1292.97 1999.64 1290.94C1996.39 1288.7 1992.49 1288.94 1988.64 1288.73C1987.97 1288.68 1987.3 1288.63 1986.61 1288.58C1982.86 1288.37 1980.38 1288.29 1977.36 1290.69C1974.07 1293.57 1972.04 1296.42 1971.39 1300.7C1971.26 1306.81 1972.19 1311.39 1975.87 1316.43C1975.18 1316.39 1974.5 1316.36 1973.79 1316.33C1966.11 1316.04 1966.11 1316.04 1959.46 1319.29C1958.45 1320.47 1957.46 1321.66 1956.47 1322.86C1956.24 1322.15 1956 1321.44 1955.76 1320.71C1950.16 1303.97 1944.6 1288.12 1934.09 1273.54C1931.27 1274.28 1928.6 1275 1925.98 1276.26C1918.69 1279.47 1910.59 1281.26 1902.76 1282.83C1901.57 1283.17 1901.57 1283.17 1900.35 1283.52C1897.43 1284.29 1894.51 1284.85 1891.53 1285.33C1890.98 1285.43 1890.42 1285.52 1889.86 1285.61C1885.62 1286.3 1881.38 1286.91 1877.13 1287.46C1875.6 1287.67 1874.08 1287.9 1872.56 1288.18C1866.67 1289.24 1861 1289.46 1855.02 1289.43C1853.57 1289.43 1853.57 1289.43 1852.1 1289.43C1850.09 1289.43 1848.08 1289.42 1846.07 1289.41C1843.49 1289.4 1840.91 1289.4 1838.33 1289.4C1835.85 1289.4 1833.38 1289.39 1830.91 1289.39C1829.98 1289.38 1829.06 1289.38 1828.1 1289.38C1827.25 1289.38 1826.4 1289.37 1825.52 1289.37C1824.77 1289.37 1824.02 1289.36 1823.24 1289.36C1821.45 1289.26 1821.45 1289.26 1819.96 1288.55C1806.55 1314 1799.29 1342.34 1797.58 1370.75C1797.46 1372.29 1797.34 1373.83 1797.21 1375.37C1796.47 1384.49 1795.92 1393.6 1795.62 1402.74C1795.59 1403.66 1795.56 1404.57 1795.53 1405.52C1794.28 1448.65 1796.97 1491.81 1808.02 1533.73C1806.98 1533.4 1805.94 1533.08 1804.9 1532.75C1803.97 1532.46 1803.97 1532.46 1803.03 1532.16C1801.31 1531.59 1801.31 1531.59 1799.45 1530.74C1795.54 1529.52 1791.94 1529.83 1788.07 1531C1784.75 1532.78 1782.39 1534.5 1781.17 1538.02C1780.9 1541.99 1780.93 1544.66 1783.41 1548.03C1785.1 1549.18 1786.75 1550 1788.63 1550.89C1787.14 1552.31 1787.14 1552.31 1785.37 1553.12C1782.62 1555 1781.51 1557.15 1780.42 1560.18C1779.96 1563.37 1780.14 1564.7 1781.82 1567.5C1782.61 1568.48 1782.61 1568.48 1783.41 1569.47C1783.9 1570.18 1784.39 1570.89 1784.9 1571.61C1784.31 1571.85 1784.31 1571.85 1783.7 1572.09C1779.95 1573.7 1777.77 1575.07 1775.95 1578.76C1774.88 1582.59 1774.93 1585.94 1776.58 1589.59C1778.66 1592.79 1782.01 1595.25 1785.65 1596.63C1787.32 1596.84 1789 1596.98 1790.68 1597.08C1791.99 1597.16 1791.99 1597.16 1793.33 1597.24C1793.99 1597.28 1794.66 1597.31 1795.34 1597.35C1796.5 1601.26 1797.04 1604.76 1796.94 1608.83C1796.93 1609.65 1796.93 1609.65 1796.91 1610.48C1796.89 1612.26 1796.85 1614.04 1796.82 1615.82C1796.8 1617.06 1796.78 1618.3 1796.76 1619.55C1796.71 1622.8 1796.65 1626.05 1796.59 1629.3C1796.52 1633.22 1796.46 1637.13 1796.4 1641.04C1796.31 1646.97 1796.2 1652.89 1796.09 1658.82C1770.24 1659.18 1770.24 1659.18 1743.87 1659.54C1743.76 1646.01 1743.65 1632.49 1743.54 1618.97C1743.54 1618.14 1743.54 1618.14 1743.53 1617.3C1743.24 1579.04 1743.07 1540.78 1742.94 1502.53C1742.93 1500.23 1742.93 1497.94 1742.92 1495.64C1742.85 1474.15 1742.77 1452.66 1742.71 1431.17C1742.67 1417.87 1742.63 1404.57 1742.59 1391.27C1742.59 1390.74 1742.59 1390.21 1742.58 1389.67C1742.47 1354.53 1742.21 1319.4 1741.63 1284.26C1738.5 1284.23 1735.37 1284.2 1732.24 1284.18C1731.18 1284.18 1730.12 1284.17 1729.06 1284.15C1723.1 1284.08 1717.37 1284.23 1711.49 1285.33C1709.47 1285.71 1707.47 1285.95 1705.43 1286.17C1696.61 1287.14 1688.21 1288.6 1679.7 1291C1678.27 1291.4 1676.83 1291.77 1675.4 1292.15C1673.48 1292.7 1671.9 1293.27 1670.16 1294.18C1668.03 1295.24 1665.92 1296.14 1663.68 1296.95C1655.18 1300.16 1647.36 1304.17 1640.01 1309.36C1638.1 1310.6 1636.38 1311.42 1634.21 1312.14C1634.21 1312.61 1634.21 1313.08 1634.21 1313.57C1632.99 1314.21 1632.99 1314.21 1631.74 1314.86C1629.78 1315.93 1628.28 1316.97 1626.75 1318.57C1624.02 1320.72 1624.02 1320.72 1622.28 1320.72C1622.07 1321.49 1622.07 1321.49 1621.86 1322.28C1620.57 1324.69 1619.21 1325.51 1616.9 1326.98C1613.58 1329.18 1611.06 1332.24 1608.5 1335.19C1607.36 1336.44 1607.36 1336.44 1605.9 1337.81C1603.81 1339.86 1602.11 1342.13 1600.34 1344.43C1599.94 1344.86 1599.55 1345.29 1599.15 1345.73C1598.66 1345.73 1598.17 1345.73 1597.66 1345.73C1597.37 1346.36 1597.37 1346.36 1597.07 1347C1596.12 1348.68 1595.07 1349.81 1593.7 1351.19C1591.21 1353.83 1589.71 1356.5 1588.15 1359.71C1586.94 1361.98 1585.4 1363.88 1583.75 1365.87C1582.4 1367.62 1581.43 1369.49 1580.5 1371.47C1580.01 1371.47 1579.52 1371.47 1579.01 1371.47C1578.84 1372.04 1578.67 1372.62 1578.5 1373.21C1577.03 1377.03 1574.93 1380.44 1572.68 1383.89C1570.2 1387.71 1568.27 1391.51 1566.53 1395.69C1565.58 1397.93 1564.52 1400.11 1563.44 1402.29C1559.69 1410.02 1556.26 1417.96 1554.1 1426.24C1553.23 1429.49 1552.05 1432.65 1550.87 1435.8C1549.32 1440.07 1548.3 1444.36 1547.37 1448.79C1547.22 1449.54 1547.06 1450.29 1546.89 1451.06C1546.56 1452.63 1546.23 1454.21 1545.9 1455.78C1545.4 1458.17 1544.89 1460.55 1544.39 1462.94C1544.06 1464.48 1543.74 1466.02 1543.41 1467.56C1543.19 1468.61 1543.19 1468.61 1542.96 1469.68C1540.75 1479.94 1540.75 1479.94 1540.24 1490.36C1540.22 1492.27 1540.22 1492.27 1539.85 1494.58C1539.49 1497.18 1539.38 1499.65 1539.38 1502.28C1539.38 1502.75 1539.38 1503.22 1539.37 1503.71C1539.37 1505.26 1539.37 1506.81 1539.38 1508.36C1539.37 1509.45 1539.37 1510.54 1539.37 1511.63C1539.37 1513.91 1539.37 1516.2 1539.38 1518.48C1539.38 1521.38 1539.38 1524.28 1539.37 1527.18C1539.37 1529.43 1539.37 1531.68 1539.37 1533.94C1539.38 1535.01 1539.37 1536.07 1539.37 1537.14C1539.36 1543.87 1539.38 1550.63 1540.22 1557.32C1540.47 1557.55 1540.71 1557.79 1540.97 1558.03C1541.16 1559.3 1541.32 1560.57 1541.45 1561.84C1541.54 1562.63 1541.62 1563.42 1541.71 1564.23C1541.81 1565.08 1541.9 1565.92 1541.99 1566.79C1542.66 1572.62 1543.38 1578.27 1544.93 1583.95C1545.66 1586.75 1546.1 1589.59 1546.54 1592.45C1547.28 1596.31 1548.59 1600.03 1549.77 1603.78C1551.06 1607.9 1552.27 1611.98 1553.18 1616.2C1555.19 1624.96 1559.06 1633.39 1562.6 1641.67C1562.84 1642.24 1563.07 1642.81 1563.32 1643.39C1564.12 1645.31 1564.94 1647.22 1565.77 1649.13C1566.09 1649.87 1566.42 1650.62 1566.75 1651.39C1567.49 1653.07 1568.25 1654.74 1569.03 1656.4C1573.89 1666.82 1573.89 1666.82 1572.39 1671.64C1571.55 1673.12 1571.55 1673.12 1570.81 1673.83C1568.66 1674.06 1568.66 1674.06 1566.33 1673.83C1564.42 1671.82 1563.27 1669.52 1562.04 1667.09C1560.41 1663.91 1558.72 1660.77 1556.96 1657.66C1554.13 1652.66 1551.35 1647.68 1549.17 1642.38C1548.58 1641.06 1547.99 1639.73 1547.4 1638.4C1545.79 1634.73 1544.43 1631.02 1543.2 1627.22C1542.38 1625.02 1541.31 1623.02 1540.22 1620.94C1534.45 1605.64 1530.54 1589.34 1527.03 1573.45C1526.87 1572.73 1526.71 1572.01 1526.54 1571.26C1525.84 1568.03 1525.22 1564.83 1524.87 1561.54C1524.74 1558.9 1524.74 1558.9 1523.81 1557.32C1523.22 1554.06 1522.78 1550.77 1522.32 1547.49C1522.18 1546.59 1522.05 1545.69 1521.91 1544.77C1521.04 1538.71 1520.44 1532.68 1520.08 1526.58C1520.04 1525.89 1520 1525.19 1519.95 1524.47C1518.71 1501.42 1518.41 1478.18 1520.73 1455.19C1520.8 1454.54 1520.86 1453.9 1520.93 1453.23C1521.58 1446.87 1522.35 1440.62 1523.81 1434.37C1524.05 1432.97 1524.29 1431.57 1524.51 1430.17C1525.12 1426.58 1525.95 1423.1 1526.91 1419.58C1527.49 1417.38 1528.02 1415.18 1528.53 1412.97C1529.99 1406.77 1531.88 1400.75 1533.93 1394.7C1534.86 1391.93 1535.69 1389.15 1536.49 1386.35C1539 1377.78 1542.37 1369.28 1546.61 1361.37C1547.85 1359.05 1548.91 1356.73 1549.92 1354.31C1550.62 1352.88 1551.33 1351.45 1552.06 1350.02C1552.43 1349.3 1552.8 1348.58 1553.18 1347.83C1554.39 1345.74 1555.8 1344.02 1557.38 1342.16C1557.93 1340.95 1558.47 1339.74 1558.98 1338.51C1559.94 1336.47 1561.23 1334.65 1562.49 1332.77C1563.5 1331.2 1564.21 1329.6 1564.84 1327.86C1565.33 1327.86 1565.82 1327.86 1566.33 1327.86C1566.53 1327.35 1566.73 1326.84 1566.94 1326.31C1567.83 1324.28 1568.85 1322.44 1570.01 1320.54C1570.39 1319.92 1570.76 1319.29 1571.15 1318.65C1572.3 1317.14 1572.3 1317.14 1574.54 1316.43C1575.04 1315.24 1575.54 1314.05 1576.03 1312.85C1577.46 1311.17 1577.46 1311.17 1579.15 1309.46C1581.93 1306.6 1584.44 1303.66 1586.84 1300.5C1587.96 1299.27 1587.96 1299.27 1590.2 1298.56C1590.45 1297.61 1590.7 1296.65 1590.95 1295.7C1592.11 1294.48 1592.11 1294.48 1593.51 1293.38C1593.97 1293 1594.43 1292.63 1594.91 1292.25C1596.17 1291.41 1596.17 1291.41 1597.66 1291.41C1597.89 1290.81 1597.89 1290.81 1598.13 1290.2C1599.58 1287.86 1601.35 1286.62 1603.63 1284.98C1604.12 1284.98 1604.61 1284.98 1605.12 1284.98C1605.37 1284.27 1605.61 1283.56 1605.87 1282.83C1608.66 1279.62 1612.09 1277.65 1615.78 1275.47C1617.44 1274.47 1619.02 1273.44 1620.6 1272.33C1623.09 1270.64 1625.58 1269.24 1628.25 1267.82C1629.28 1267.2 1629.28 1267.2 1630.34 1266.57C1631.98 1265.68 1631.98 1265.68 1633.47 1265.68C1633.47 1265.2 1633.47 1264.73 1633.47 1264.25C1633.9 1264.08 1634.34 1263.92 1634.79 1263.75C1638.27 1262.43 1641.72 1261.07 1645.15 1259.65C1653.61 1256.15 1661.71 1253.08 1670.77 1251.38C1671.76 1251.18 1672.76 1250.99 1673.75 1250.79C1680.42 1249.51 1687.13 1248.54 1693.89 1247.81C1694.45 1247.74 1695.01 1247.68 1695.59 1247.62C1703.68 1246.75 1711.77 1246.21 1719.91 1245.88C1720.73 1245.85 1721.55 1245.82 1722.39 1245.78C1726.44 1245.64 1730.16 1245.72 1734.17 1246.38C1736.88 1246.61 1739.59 1246.85 1742.38 1247.09C1742.13 1224.45 1741.89 1201.8 1741.63 1178.47C1739.42 1181.77 1737.2 1185.07 1734.92 1188.48C1729.71 1195.25 1722.05 1201.11 1713.29 1202.77C1708 1203.13 1703.19 1201.77 1699.11 1198.48C1697.34 1196.23 1696.01 1193.82 1694.64 1191.34C1690.81 1185.38 1686.23 1179.94 1681.74 1174.44C1668.53 1158.21 1668.53 1158.21 1668.53 1155.6C1668.15 1155.8 1667.77 1156.01 1667.37 1156.23C1649.23 1166.03 1649.23 1166.03 1639.43 1164.89C1637.01 1164.07 1634.57 1163.09 1632.72 1161.31C1632.08 1156.68 1632.88 1152.98 1635.7 1149.16C1638.24 1146.54 1641.28 1144.91 1644.66 1143.44C1643.87 1142.97 1643.09 1142.5 1642.28 1142.01C1638.56 1139.49 1636.39 1136.12 1634.96 1132.01C1634.59 1128.84 1634.31 1126.4 1636.36 1123.79C1639.52 1121.65 1642.38 1121.61 1646.15 1122C1650.85 1123.19 1654.33 1124.76 1658.08 1127.72C1657.92 1123.29 1657.75 1118.87 1657.57 1114.45C1657.51 1112.94 1657.45 1111.44 1657.4 1109.94C1657.73 1096.06 1657.73 1096.06 1651.7 1084.25C1650.91 1083.58 1650.91 1083.58 1650.11 1082.89C1643.3 1076.41 1638.89 1067.37 1634.96 1059.1C1634.73 1058.61 1634.5 1058.13 1634.26 1057.63C1619.89 1027.15 1619.88 989.262 1631.92 958.125C1633.82 953.468 1636.17 949.098 1638.69 944.727C1639.3 943.642 1639.91 942.557 1640.51 941.471C1643.66 935.907 1646.93 930.496 1650.68 925.282C1651.67 923.905 1652.63 922.511 1653.58 921.105C1666.19 902.311 1687.6 888.38 1708.06 878.25C1708.9 877.828 1708.9 877.828 1709.76 877.398C1718.62 872.99 1727.62 869.91 1737.24 867.381C1738.62 867.017 1740 866.646 1741.37 866.264C1752.16 863.274 1763.11 861.493 1774.18 859.799C1774.89 859.689 1775.6 859.58 1776.33 859.467C1799.94 855.857 1822.6 856.329 1846.18 860.1ZM1942.3 994.763C1942.07 995.185 1941.85 995.606 1941.62 996.039C1940.57 997.984 1939.53 999.925 1938.48 1001.87C1938.12 1002.53 1937.77 1003.19 1937.4 1003.87C1935.34 1007.68 1933.14 1011.28 1930.61 1014.82C1929.41 1016.5 1928.3 1018.23 1927.19 1019.96C1925.13 1023.08 1922.92 1026.05 1920.57 1028.98C1920.27 1029.37 1919.97 1029.75 1919.65 1030.14C1909.44 1042.75 1895.5 1048.43 1879.44 1050.56C1865.37 1052.26 1852.16 1051.75 1838.61 1047.66C1837.99 1047.47 1837.37 1047.28 1836.73 1047.09C1825.67 1043.65 1816.18 1039.31 1807.69 1031.51C1803.48 1027.24 1803.48 1027.24 1798.33 1024.79C1798.3 1046.54 1798.29 1068.3 1798.28 1090.06C1798.28 1090.85 1798.28 1091.65 1798.28 1092.48C1798.25 1150.37 1798.25 1150.37 1798.7 1208.27C1798.71 1209 1798.72 1209.72 1798.73 1210.47C1798.83 1218.63 1798.94 1226.78 1799.07 1234.94C1800.53 1233.1 1801.86 1231.27 1803.09 1229.29C1807.14 1222.78 1811.25 1216.54 1816.23 1210.64C1816.73 1210.04 1816.73 1210.04 1817.25 1209.43C1830.4 1193.96 1846.56 1182.19 1866.96 1177.04C1867.7 1176.85 1868.43 1176.66 1869.2 1176.46C1875 1175.07 1880.42 1174.53 1886.4 1174.58C1887.71 1174.59 1887.71 1174.59 1889.04 1174.6C1896.87 1174.73 1904.17 1175.8 1911.71 1177.75C1912.66 1177.99 1913.6 1178.22 1914.57 1178.46C1926.02 1181.71 1936.82 1187.61 1946.41 1194.35C1947.99 1195.43 1949.49 1196.29 1951.25 1197.05C1953.48 1195.07 1954.95 1193.13 1956.47 1190.62C1958.15 1188.19 1959.78 1185.99 1962.02 1184.01C1964.39 1181.58 1965.76 1178.95 1967.36 1176.02C1968.5 1174.02 1969.9 1172.38 1971.39 1170.61C1973.42 1167.16 1975.01 1163.53 1976.61 1159.88C1977.08 1158.9 1977.55 1157.92 1978.01 1156.94C1983.35 1145.45 1987.06 1133.93 1989.02 1121.51C1989.1 1120.97 1989.19 1120.44 1989.27 1119.89C1990.9 1109.34 1991.24 1099.07 1990.79 1088.4C1990.76 1087.5 1990.76 1087.5 1990.72 1086.58C1990.49 1080.43 1989.82 1074.42 1988.55 1068.39C1988.45 1067.91 1988.35 1067.43 1988.25 1066.94C1985.84 1054.24 1985.84 1054.24 1980.34 1042.66C1979.97 1041.5 1979.63 1040.34 1979.32 1039.17C1978.4 1036.12 1977.29 1034.36 1975.12 1031.93C1973.95 1029.97 1972.84 1027.97 1971.73 1025.97C1970.86 1024.44 1969.95 1023 1968.92 1021.57C1967.66 1019.78 1967.66 1019.78 1966.92 1017.64C1966.42 1017.64 1965.93 1017.64 1965.43 1017.64C1965.43 1017.17 1965.43 1016.69 1965.43 1016.21C1964.06 1014.66 1964.06 1014.66 1962.44 1013.35C1961.95 1013.35 1961.46 1013.35 1960.95 1013.35C1960.65 1012.49 1960.65 1012.49 1960.34 1011.61C1959.9 1010.7 1959.9 1010.7 1959.46 1009.77C1958.72 1009.54 1957.98 1009.3 1957.22 1009.06C1956.69 1008.12 1956.2 1007.17 1955.73 1006.2C1954.25 1004.5 1952.6 1002.98 1950.97 1001.42C1950.54 1001 1950.11 1000.57 1949.67 1000.13C1949.25 999.73 1948.82 999.326 1948.39 998.91C1947.82 998.359 1947.82 998.359 1947.24 997.797C1945.86 996.781 1944.72 996.579 1943.05 996.193C1942.8 995.721 1942.55 995.25 1942.3 994.763Z" fill="black"/>
<path d="M2345.13 1191.58C2346.35 1192.65 2347.57 1193.72 2348.78 1194.79C2349.24 1195.18 2349.69 1195.56 2350.16 1195.96C2374.26 1217.35 2381.59 1255.69 2383.32 1285.33C2383.35 1285.87 2383.39 1286.42 2383.42 1286.98C2384.27 1301.85 2384.25 1316.74 2384.27 1331.63C2384.27 1335.72 2384.29 1339.81 2384.3 1343.9C2384.32 1350.83 2384.34 1357.77 2384.36 1364.71C2384.4 1382.64 2384.48 1400.57 2384.55 1418.5C2384.56 1419.38 2384.56 1420.26 2384.56 1421.16C2384.68 1448.93 2384.88 1476.7 2385.42 1504.46C2385.46 1506.81 2385.51 1509.15 2385.55 1511.5C2385.85 1527.63 2386.35 1543.75 2387 1559.87C2387.03 1560.64 2387.06 1561.4 2387.09 1562.2C2388.18 1589.25 2391.71 1616.08 2401.33 1641.72C2402 1643.78 2402 1643.78 2402 1646.64C2382.71 1646.64 2363.41 1646.64 2343.54 1646.64C2341.14 1639.8 2338.98 1633.38 2337.49 1626.38C2337.21 1625.09 2337.21 1625.09 2336.93 1623.77C2334.73 1613.16 2333.49 1602.42 2332.29 1591.68C2331.38 1592.76 2331.38 1592.76 2330.45 1593.87C2325.84 1599.34 2321.15 1604.67 2316.12 1609.8C2314.56 1611.4 2313.04 1613.03 2311.54 1614.7C2307.1 1619.56 2302.21 1623.9 2297.07 1628.08C2296 1628.97 2296 1628.97 2294.92 1629.89C2283.91 1639.07 2272.15 1645.18 2258.84 1650.92C2257.96 1651.31 2257.07 1651.71 2256.16 1652.11C2242.86 1657.75 2228.45 1659.06 2214.06 1659C2213.46 1659 2212.86 1659 2212.25 1658.99C2203.59 1658.96 2195.33 1658.61 2186.89 1656.63C2185.71 1656.39 2184.53 1656.14 2183.35 1655.9C2175.14 1654.11 2167.95 1651.33 2160.65 1647.35C2159.91 1646.96 2159.18 1646.56 2158.42 1646.15C2130.85 1630.35 2115.85 1601.13 2107.99 1572.46C2106.59 1566.92 2105.66 1561.29 2104.75 1555.66C2104.44 1553.87 2104.06 1552.11 2103.66 1550.33C2101.91 1542.08 2102.01 1533.63 2102 1525.25C2102 1524.65 2102 1524.05 2102 1523.44C2102.05 1482.54 2114.15 1440.59 2144.54 1410.54C2161.68 1394.84 2182.29 1385.83 2205.08 1380.35C2206.78 1379.94 2208.48 1379.51 2210.17 1379.05C2218.61 1376.79 2227.17 1375.22 2235.77 1373.61C2248.84 1371.15 2261.87 1368.62 2274.77 1365.44C2275.55 1365.25 2275.55 1365.25 2276.36 1365.05C2281.54 1363.78 2286.55 1362.38 2291.48 1360.4C2293.52 1359.6 2295.59 1358.9 2297.68 1358.2C2305.78 1355.49 2313.77 1352.71 2321.57 1349.25C2325.42 1347.55 2325.42 1347.55 2327.05 1347.55C2328.77 1296 2328.77 1296 2305.36 1251.45C2300.27 1246.62 2294.51 1243.41 2288.07 1240.47C2287.29 1240.12 2286.51 1239.76 2285.71 1239.39C2270.05 1232.76 2253.21 1231.8 2236.35 1233.34C2235.53 1233.41 2235.53 1233.41 2234.68 1233.48C2222.55 1234.68 2209.72 1239.36 2200.38 1246.9C2199.74 1247.39 2199.11 1247.88 2198.46 1248.38C2177.37 1265.45 2171.07 1297.21 2166.65 1321.85C2163.57 1322.64 2161.38 1322.43 2158.28 1321.77C2157.38 1321.59 2156.49 1321.4 2155.57 1321.21C2154.62 1321.01 2153.67 1320.81 2152.69 1320.6C2146.34 1319.29 2140.01 1318.02 2133.58 1317.12C2128.68 1316.43 2123.85 1315.59 2119.01 1314.62C2118.09 1314.44 2118.09 1314.44 2117.15 1314.25C2112.88 1313.38 2112.88 1313.38 2111.18 1312.57C2110.86 1306.86 2112.05 1301.38 2113.15 1295.8C2113.25 1295.27 2113.35 1294.75 2113.46 1294.21C2119.61 1262.72 2129.47 1231 2151.66 1206.21C2152 1205.83 2152.34 1205.45 2152.69 1205.06C2171.81 1183.89 2199.57 1172.05 2227.99 1167.25C2229.54 1166.96 2231.05 1166.6 2232.57 1166.21C2269.85 1157.24 2316.66 1167.5 2345.13 1191.58ZM2323.19 1413.39C2297.6 1426.67 2269.83 1434.68 2241.6 1441.06C2215.16 1446.51 2215.16 1446.51 2191.38 1458.19C2190.66 1458.69 2189.94 1459.19 2189.2 1459.7C2173 1471.63 2165.84 1489.44 2162.9 1508.16C2160.77 1524.27 2162.15 1540.74 2168.15 1555.98C2168.49 1556.85 2168.83 1557.71 2169.18 1558.61C2175.55 1573.71 2186.27 1584.6 2201.93 1591.13C2208.53 1593.61 2215.79 1594.99 2222.86 1595.24C2223.53 1595.27 2224.2 1595.3 2224.89 1595.33C2249.12 1595.86 2269.6 1586.3 2287.08 1570.68C2293.22 1565.06 2298.49 1559.26 2303.06 1552.41C2303.37 1551.95 2303.69 1551.49 2304.01 1551.02C2309.17 1543.29 2313.13 1535.27 2316.55 1526.72C2316.91 1525.84 2317.26 1524.96 2317.63 1524.06C2330.87 1488.73 2328.64 1448.7 2327.05 1411.79C2325.64 1411.79 2324.39 1412.76 2323.19 1413.39Z" fill="black"/>
<path d="M2531.18 1008C2531.67 1062.23 2532.16 1116.46 2532.67 1172.34C2550.73 1172.34 2568.78 1172.34 2587.38 1172.34C2587.38 1193.32 2587.38 1214.31 2587.38 1235.93C2569.08 1235.93 2550.78 1235.93 2531.93 1235.93C2531.97 1239.99 2532.02 1244.05 2532.08 1248.23C2532.51 1285.57 2532.76 1322.91 2532.88 1360.26C2532.89 1361.97 2532.89 1363.68 2532.9 1365.4C2532.96 1385.24 2533.02 1405.07 2533.07 1424.91C2533.08 1427.33 2533.08 1429.75 2533.09 1432.17C2533.09 1433.07 2533.09 1433.07 2533.09 1433.99C2533.12 1443.96 2533.15 1453.93 2533.18 1463.9C2533.2 1469.98 2533.22 1476.06 2533.23 1482.14C2533.24 1486.25 2533.25 1490.37 2533.27 1494.49C2533.28 1496.86 2533.28 1499.22 2533.29 1501.59C2533.29 1504.15 2533.3 1506.72 2533.31 1509.28C2533.31 1510.02 2533.31 1510.76 2533.31 1511.52C2533.33 1515.7 2533.62 1519.74 2534.17 1523.88C2534.25 1525.15 2534.32 1526.41 2534.36 1527.68C2534.39 1528.67 2534.39 1528.67 2534.43 1529.68C2534.45 1530.36 2534.48 1531.04 2534.5 1531.74C2535.28 1552.83 2535.28 1552.83 2546.77 1570.24C2552.43 1574.63 2559.25 1575.47 2566.4 1575.33C2570.17 1574.93 2573.87 1574.19 2577.58 1573.47C2581.33 1572.78 2585.11 1572.29 2588.88 1571.76C2590.23 1579.46 2591.15 1587.19 2592.03 1594.96C2592.18 1596.28 2592.33 1597.6 2592.48 1598.93C2592.79 1601.68 2593.1 1604.44 2593.42 1607.19C2593.81 1610.72 2594.22 1614.25 2594.63 1617.78C2594.94 1620.5 2595.25 1623.23 2595.55 1625.95C2595.7 1627.25 2595.85 1628.55 2596 1629.85C2596.21 1631.67 2596.41 1633.48 2596.61 1635.3C2596.68 1635.83 2596.74 1636.36 2596.81 1636.91C2597.1 1639.65 2597.13 1641.98 2596.37 1644.64C2585.95 1647.4 2575.64 1649.78 2564.9 1651.07C2564.35 1651.13 2563.8 1651.2 2563.23 1651.27C2544.92 1653.38 2525.27 1651.25 2510.19 1640.35C2507.57 1638.31 2505.11 1636.18 2502.7 1633.92C2502.18 1633.44 2501.67 1632.95 2501.13 1632.46C2473.73 1604.99 2478.02 1558.54 2477.2 1523.52C2477.18 1522.82 2477.17 1522.13 2477.15 1521.41C2476.13 1478.01 2476.14 1434.6 2476.03 1391.2C2476.01 1382.42 2475.98 1373.64 2475.96 1364.86C2475.95 1364.28 2475.95 1363.7 2475.95 1363.1C2475.94 1360.76 2475.94 1358.42 2475.93 1356.08C2475.8 1316.27 2475.69 1276.46 2475.72 1236.65C2473.75 1236.7 2471.79 1236.76 2469.82 1236.82C2468.99 1236.84 2468.99 1236.84 2468.14 1236.87C2465.32 1236.95 2462.49 1237.03 2459.67 1237.12C2458.63 1237.15 2457.59 1237.18 2456.54 1237.2C2455.8 1237.23 2455.8 1237.23 2455.04 1237.25C2448.69 1237.42 2442.36 1237.36 2436 1237.36C2436 1216.38 2436 1195.39 2436 1173.77C2460.14 1172.95 2460.14 1172.95 2467.66 1173.01C2468.86 1173.01 2468.86 1173.01 2470.08 1173.02C2471.96 1173.03 2473.84 1173.04 2475.72 1173.05C2475.7 1172.46 2475.69 1171.87 2475.68 1171.27C2475.33 1156.86 2475.05 1142.46 2474.84 1128.05C2474.74 1121.09 2474.62 1114.12 2474.44 1107.16C2474.29 1101.08 2474.18 1095.01 2474.11 1088.93C2474.08 1085.71 2474.02 1082.5 2473.92 1079.29C2473.23 1057.12 2473.23 1057.12 2478.9 1051.1C2480.79 1049.44 2482.74 1048 2484.9 1046.68C2486.61 1045.63 2488.05 1044.37 2489.52 1043.04C2489.97 1042.68 2490.42 1042.32 2490.88 1041.95C2493.47 1039.83 2495.92 1037.57 2498.39 1035.33C2502.81 1031.34 2507.26 1027.39 2511.76 1023.47C2513.76 1021.73 2515.74 1019.99 2517.73 1018.23C2520.87 1015.46 2524.01 1012.69 2527.19 1009.96C2527.87 1009.38 2527.87 1009.38 2528.56 1008.79C2529.68 1008 2529.68 1008 2531.18 1008Z" fill="black"/>
<path d="M1997.28 1264.91C1999.92 1266.11 2000.28 1267.8 2001.25 1270.3C2001.53 1271 2001.53 1271 2001.81 1271.72C2005.3 1280.66 2007.95 1289.76 2010.31 1299.02C2010.48 1299.67 2010.48 1299.67 2010.65 1300.32C2012.84 1308.92 2014.43 1317.5 2015.2 1326.31C2015.26 1326.99 2015.33 1327.68 2015.39 1328.38C2015.52 1329.77 2015.64 1331.17 2015.77 1332.56C2015.94 1334.49 2016.13 1336.41 2016.32 1338.34C2016.8 1343.35 2017.26 1348.27 2016.99 1353.3C2016.97 1355.53 2017.17 1357.7 2017.37 1359.92C2017.92 1366.48 2017.86 1373 2017.68 1379.57C2017.66 1380.23 2017.64 1380.9 2017.62 1381.58C2014.82 1471.35 1996.8 1535.84 1981.62 1567.19C1981.21 1568.68 1998.81 1505.92 1998.44 1507.42C1998.33 1507.88 1998.24 1508.1 1998.12 1508.57C1997.39 1511.52 1996.71 1514.49 1996.04 1517.46C1994.53 1524.18 1992.73 1530.79 1990.74 1537.38C1990.5 1538.19 1990.26 1538.99 1990.01 1539.82C1989.49 1541.5 1988.98 1543.18 1988.45 1544.86C1987.7 1547.27 1986.96 1549.67 1986.23 1552.08C1985.65 1553.99 1985.07 1555.9 1984.48 1557.81C1984.19 1558.77 1983.9 1559.73 1983.61 1560.69C1983.2 1562.05 1982.78 1563.42 1982.36 1564.78C1982.11 1565.57 1981.87 1566.37 1981.62 1567.19C1980.8 1569.28 1979.96 1570.7 1978.37 1572.32C1977.92 1572.27 1977.47 1572.21 1977.01 1572.16C1977 1571.51 1976.98 1570.87 1976.96 1570.2C1976.94 1569.35 1976.92 1568.51 1976.9 1567.64C1976.88 1566.8 1976.85 1565.96 1976.83 1565.1C1976.79 1562.88 1976.79 1562.88 1976.28 1560.83C1975.38 1560.72 1974.48 1560.62 1973.56 1560.51C1973.48 1561.15 1973.41 1561.8 1973.33 1562.46C1972.63 1562.6 1971.93 1562.74 1971.21 1562.88C1970.07 1561.3 1969.48 1560.38 1969.52 1558.44C1969.62 1557.9 1969.72 1557.36 1969.82 1556.8C1970.35 1553.36 1970.35 1553.36 1969.27 1550.08C1966.39 1547.89 1964.13 1547.25 1960.52 1546.9C1959.69 1546.81 1958.86 1546.73 1958 1546.64C1955.99 1546.4 1955.99 1546.4 1954.48 1547.02C1955.14 1543.86 1956.69 1542.82 1959.32 1540.97C1962.02 1538.85 1963.14 1536.13 1963.72 1532.89C1963.96 1526.63 1963.96 1526.63 1962.13 1520.7C1959.67 1518.18 1956.49 1517.75 1953.04 1517.49C1949.95 1517.51 1947.03 1518 1944.04 1518.66C1944.46 1514.6 1945.11 1510.68 1946.05 1506.7C1946.17 1506.16 1946.3 1505.62 1946.42 1505.07C1947.18 1501.88 1948.09 1498.8 1949.19 1495.71C1949.99 1493.17 1950.38 1490.56 1950.85 1487.94C1951.41 1485.05 1952.15 1482.21 1952.89 1479.35C1954.36 1473.6 1955.66 1467.99 1956.21 1462.08C1956.65 1457.53 1957.51 1453.06 1958.37 1448.57C1959.81 1441.11 1961.15 1433.71 1961.8 1426.14C1961.86 1425.45 1961.92 1424.77 1961.98 1424.06C1962.47 1418.42 1962.91 1412.78 1963.34 1407.14C1963.39 1406.5 1963.44 1405.86 1963.49 1405.21C1963.79 1401.26 1964.05 1397.31 1964.27 1393.35C1964.31 1392.69 1964.35 1392.04 1964.39 1391.36C1965.65 1368.18 1963.45 1345.38 1956.7 1322.99C1956.41 1322.02 1956.41 1322.02 1956.11 1321.02C1952.8 1310.01 1948.93 1299.25 1943.47 1289.02C1943.57 1288.16 1943.67 1287.3 1943.78 1286.41C1944.21 1286.47 1944.64 1286.52 1945.08 1286.58C1963.33 1289.12 1963.33 1289.12 1979.37 1281.88C1980.94 1280.85 1980.94 1280.85 1982.3 1281.01C1982.35 1280.58 1982.4 1280.15 1982.45 1279.71C1983.31 1279.07 1984.18 1278.44 1985.05 1277.81C1987.55 1275.76 1989.61 1273.26 1991.75 1270.88C1992.79 1269.75 1993.82 1268.64 1994.86 1267.52C1995.32 1267.02 1995.78 1266.52 1996.26 1266C1996.6 1265.64 1996.93 1265.28 1997.28 1264.91Z" fill="black"/>
</svg>
